<?xml version="1.0" encoding="UTF-8" standalone="no"?>
<svg
   sodipodi:docname="dunes.svg"
   inkscape:version="1.1.2 (b8e25be833, 2022-02-05)"
   id="svg2424"
   version="1.1"
   viewBox="0 -1.15 2.5135418 0.8272789"
   height="0.82727891mm"
   width="2.5135417mm"
   xmlns:inkscape="http://www.inkscape.org/namespaces/inkscape"
   xmlns:sodipodi="http://sodipodi.sourceforge.net/DTD/sodipodi-0.dtd"
   xmlns="http://www.w3.org/2000/svg"
   xmlns:svg="http://www.w3.org/2000/svg"
   xmlns:rdf="http://www.w3.org/1999/02/22-rdf-syntax-ns#"
   xmlns:cc="http://creativecommons.org/ns#"
   xmlns:dc="http://purl.org/dc/elements/1.1/">
  <defs
     id="defs2418" />
  <sodipodi:namedview
     fit-margin-bottom="0"
     fit-margin-right="0"
     fit-margin-left="0"
     fit-margin-top="0"
     inkscape:guide-bbox="true"
     showguides="true"
     inkscape:window-maximized="1"
     inkscape:window-y="-8"
     inkscape:window-x="-8"
     inkscape:window-height="1009"
     inkscape:window-width="1920"
     showgrid="true"
     inkscape:document-rotation="0"
     inkscape:current-layer="svg2424"
     inkscape:document-units="mm"
     inkscape:cy="-0.36460193"
     inkscape:cx="2.3533398"
     inkscape:zoom="45.254834"
     inkscape:pageshadow="2"
     inkscape:pageopacity="0.0"
     borderopacity="1.0"
     bordercolor="#666666"
     pagecolor="#ffffff"
     id="base"
     inkscape:pagecheckerboard="1">
    <sodipodi:guide
       id="guide3984"
       orientation="0,1"
       position="-0.24460709,0.66923836"
       inkscape:label=""
       inkscape:locked="false"
       inkscape:color="rgb(0,0,255)" />
    <inkscape:grid
       type="xygrid"
       id="grid1098"
       spacingx="0.0026458333"
       spacingy="0.0026458333"
       originx="0"
       originy="-0.9919594" />
  </sodipodi:namedview>
  <metadata
     id="metadata2421">
    <rdf:RDF>
      <cc:Work
         rdf:about="">
        <dc:format>image/svg+xml</dc:format>
        <dc:type
           rdf:resource="http://purl.org/dc/dcmitype/StillImage" />
      </cc:Work>
    </rdf:RDF>
  </metadata>
  <path
     id="path850"
     style="fill:#000000;fill-opacity:1;stroke-width:0.055;stroke-linejoin:bevel"
     d="M 0.42333331,-0.97779279 A 0.17220721,0.17220721 0 0 0 0.25112609,-1.15 a 0.17220721,0.17220721 0 0 0 -0.1722072,0.17220721 0.17220721,0.17220721 0 0 0 0.1722072,0.17220721 0.17220721,0.17220721 0 0 0 0.17220722,-0.17220721 z" />
  <path
     id="path850-3"
     style="fill:#000000;fill-opacity:1;stroke-width:0.055;stroke-linejoin:bevel"
     d="M 0.62177067,-0.64747702 A 0.11929054,0.11929054 0 0 0 0.50248013,-0.76676755 0.11929054,0.11929054 0 0 0 0.3831896,-0.64747702 0.11929054,0.11929054 0 0 0 0.50248013,-0.52818648 0.11929054,0.11929054 0 0 0 0.62177067,-0.64747702 Z" />
  <path
     id="path850-3-5"
     style="fill:#000000;fill-opacity:1;stroke-width:0.055;stroke-linejoin:bevel"
     d="m 0.33072913,-0.40232409 a 0.07960304,0.07960304 0 0 0 -0.079603,-0.079603 0.07960304,0.07960304 0 0 0 -0.079603,0.079603 0.07960304,0.07960304 0 0 0 0.079603,0.079603 0.07960304,0.07960304 0 0 0 0.079603,-0.079603 z" />
  <path
     id="path850-33"
     style="fill:#000000;fill-opacity:1;stroke-width:0.055;stroke-linejoin:bevel"
     d="M 0.92604163,-0.97779279 A 0.17220721,0.17220721 0 0 0 0.75383441,-1.15 a 0.17220721,0.17220721 0 0 0 -0.1722072,0.17220721 0.17220721,0.17220721 0 0 0 0.1722072,0.17220721 0.17220721,0.17220721 0 0 0 0.17220722,-0.17220721 z" />
  <path
     id="path850-3-8"
     style="fill:#000000;fill-opacity:1;stroke-width:0.055;stroke-linejoin:bevel"
     d="M 1.1244792,-0.64706362 A 0.11929054,0.11929054 0 0 0 1.0051887,-0.76635415 0.11929054,0.11929054 0 0 0 0.8858981,-0.64706362 0.11929054,0.11929054 0 0 0 1.0051887,-0.52777308 0.11929054,0.11929054 0 0 0 1.1244792,-0.64706362 Z" />
  <path
     id="path850-3-5-2"
     style="fill:#000000;fill-opacity:1;stroke-width:0.055;stroke-linejoin:bevel"
     d="m 0.83343745,-0.40232409 a 0.07960304,0.07960304 0 0 0 -0.079603,-0.079603 0.07960304,0.07960304 0 0 0 -0.079603,0.079603 0.07960304,0.07960304 0 0 0 0.079603,0.079603 0.07960304,0.07960304 0 0 0 0.079603,-0.079603 z" />
  <path
     id="path850-7"
     style="fill:#000000;fill-opacity:1;stroke-width:0.055;stroke-linejoin:bevel"
     d="M 1.42875,-0.97779279 A 0.17220721,0.17220721 0 0 0 1.2565428,-1.15 0.17220721,0.17220721 0 0 0 1.0843356,-0.97779279 0.17220721,0.17220721 0 0 0 1.2565428,-0.80558558 0.17220721,0.17220721 0 0 0 1.42875,-0.97779279 Z" />
  <path
     id="path850-3-2"
     style="fill:#000000;fill-opacity:1;stroke-width:0.055;stroke-linejoin:bevel"
     d="M 1.6271876,-0.64706363 A 0.11929054,0.11929054 0 0 0 1.507897,-0.76635416 0.11929054,0.11929054 0 0 0 1.3886065,-0.64706363 0.11929054,0.11929054 0 0 0 1.507897,-0.52777309 0.11929054,0.11929054 0 0 0 1.6271876,-0.64706363 Z" />
  <path
     id="path850-3-5-9"
     style="fill:#000000;fill-opacity:1;stroke-width:0.055;stroke-linejoin:bevel"
     d="m 1.3361459,-0.40232409 a 0.07960304,0.07960304 0 0 0 -0.079603,-0.079603 0.07960304,0.07960304 0 0 0 -0.079603,0.079603 0.07960304,0.07960304 0 0 0 0.079603,0.079603 0.07960304,0.07960304 0 0 0 0.079603,-0.079603 z" />
  <path
     id="path850-33-6"
     style="fill:#000000;fill-opacity:1;stroke-width:0.055;stroke-linejoin:bevel"
     d="M 1.9314584,-0.97779279 A 0.17220721,0.17220721 0 0 0 1.7592512,-1.15 0.17220721,0.17220721 0 0 0 1.587044,-0.97779279 0.17220721,0.17220721 0 0 0 1.7592512,-0.80558558 0.17220721,0.17220721 0 0 0 1.9314584,-0.97779279 Z" />
  <path
     id="path850-3-8-7"
     style="fill:#000000;fill-opacity:1;stroke-width:0.055;stroke-linejoin:bevel"
     d="M 2.1298959,-0.64706363 A 0.11929054,0.11929054 0 0 0 2.0106054,-0.76635416 0.11929054,0.11929054 0 0 0 1.8913148,-0.64706363 0.11929054,0.11929054 0 0 0 2.0106054,-0.52777309 0.11929054,0.11929054 0 0 0 2.1298959,-0.64706363 Z" />
  <path
     id="path850-3-5-2-0"
     style="fill:#000000;fill-opacity:1;stroke-width:0.055;stroke-linejoin:bevel"
     d="m 1.8388542,-0.40232409 a 0.07960304,0.07960304 0 0 0 -0.079603,-0.079603 0.07960304,0.07960304 0 0 0 -0.079603,0.079603 0.07960304,0.07960304 0 0 0 0.079603,0.079603 0.07960304,0.07960304 0 0 0 0.079603,-0.079603 z" />
  <path
     id="path850-33-6-3"
     style="fill:#000000;fill-opacity:1;stroke-width:0.055;stroke-linejoin:bevel"
     d="M 2.4341666,-0.97779279 A 0.17220721,0.17220721 0 0 0 2.2619594,-1.15 0.17220721,0.17220721 0 0 0 2.0897522,-0.97779279 0.17220721,0.17220721 0 0 0 2.2619594,-0.80558558 0.17220721,0.17220721 0 0 0 2.4341666,-0.97779279 Z" />
  <path
     id="path850-3-5-2-0-0"
     style="fill:#000000;fill-opacity:1;stroke-width:0.055;stroke-linejoin:bevel"
     d="m 2.3415624,-0.40232409 a 0.07960304,0.07960304 0 0 0 -0.079603,-0.079603 0.07960304,0.07960304 0 0 0 -0.079603,0.079603 0.07960304,0.07960304 0 0 0 0.079603,0.079603 0.07960304,0.07960304 0 0 0 0.079603,-0.079603 z" />
  <path
     id="path850-3-8-7-6"
     style="fill:#000000;fill-opacity:1;stroke-width:0.055;stroke-linejoin:bevel"
     d="M 2.6326041,-0.6470636 A 0.11929054,0.11929054 0 0 0 2.5133136,-0.76635413 0.11929054,0.11929054 0 0 0 2.394023,-0.6470636 0.11929054,0.11929054 0 0 0 2.5133136,-0.52777306 0.11929054,0.11929054 0 0 0 2.6326041,-0.6470636 Z" />
  <path
     id="path850-3-8-7-8"
     style="fill:#000000;fill-opacity:1;stroke-width:0.055;stroke-linejoin:bevel"
     d="M 0.1190625,-0.64706359 A 0.11929054,0.11929054 0 0 0 -2.28023e-4,-0.76635412 0.11929054,0.11929054 0 0 0 -0.1195186,-0.64706359 0.11929054,0.11929054 0 0 0 -2.28023e-4,-0.52777305 0.11929054,0.11929054 0 0 0 0.1190625,-0.64706359 Z" />
</svg>
