<svg width="23.736mm" height="2.5mm" version="1.1" viewBox="-.09 -1.28 23.736 2.5" xmlns="http://www.w3.org/2000/svg">
 <path d="m13.943-0.91311c0.92811 0.04287 0.87301 1.7889 1.8268 1.7557 0.92241-0.032152 0.78087-1.7479 1.7308-1.7567 0.94901-0.00779 0.85211 1.7255 1.7584 1.7255 0.93476 0 0.76472-1.7255 1.671-1.7255 1.0421 0 0.86826 1.7294 1.7641 1.7294 0.47867 0 0.66822-0.45155 0.86026-0.89266" style="fill:none;stroke-miterlimit:3.864;stroke-width:.2;stroke:#db4996"/>
 <path d="m13.953-0.91311c-0.46788 0.021612-0.68589 0.47605-0.90925 0.91719" style="fill:none;stroke-miterlimit:3.864;stroke-width:.2;stroke:#db4996"/>
 <path d="m12.625-2.1594-1.6176 1.7222 1.1336 1.1161-1.4544 1.4206 1.9354-1.4206-1.1372-1.1161" style="fill:#db4996"/>
 <path d="m0.89844-0.90757c0.92811 0.04287 0.87301 1.7889 1.8268 1.7557 0.92241-0.032152 0.78087-1.7479 1.7308-1.7567 0.94901-0.00779 0.85211 1.7255 1.7584 1.7255 0.93476 0 0.76472-1.7255 1.671-1.7255 1.0421 0 0.86826 1.7294 1.7641 1.7294 0.47867 0 0.66822-0.45155 0.86026-0.89266" style="fill:none;stroke-miterlimit:3.864;stroke-width:.2;stroke:#db4996"/>
 <path d="m0.90844-0.90757c-0.46788 0.021612-0.68589 0.47605-0.90925 0.91719" style="fill:none;stroke-miterlimit:3.864;stroke-width:.2;stroke:#db4996"/>
</svg>
