<svg width="66.063pt" height=".26532pt" version="1.1" viewBox="0 0 66.063 .26532" xmlns="http://www.w3.org/2000/svg">
  <defs>
    <clipPath id="z">
      <g>
        <g>
          <path d="m-2.8359-35.727h612v72h-612z"/>
        </g>
      </g>
    </clipPath>
    <clipPath id="y">
      <g>
        <g>
          <path d="m-2.8359-35.727h612v72h-612z"/>
        </g>
      </g>
    </clipPath>
    <clipPath id="x">
      <g>
        <g>
          <path d="m-2.8359-35.727h612v72h-612z"/>
        </g>
      </g>
    </clipPath>
    <clipPath id="w">
      <g>
        <g>
          <path d="m-2.8359-35.727h612v72h-612z"/>
        </g>
      </g>
    </clipPath>
    <clipPath id="v">
      <g>
        <g>
          <path d="m-2.8359-35.727h612v72h-612z"/>
        </g>
      </g>
    </clipPath>
    <clipPath id="u">
      <g>
        <g>
          <path d="m-2.8359-35.727h612v72h-612z"/>
        </g>
      </g>
    </clipPath>
    <clipPath id="t">
      <g>
        <g>
          <path d="m-2.8359-35.727h612v72h-612z"/>
        </g>
      </g>
    </clipPath>
    <clipPath id="s">
      <g>
        <g>
          <path d="m-2.8359-35.727h612v72h-612z"/>
        </g>
      </g>
    </clipPath>
    <clipPath id="r">
      <g>
        <g>
          <path d="m-2.8359-35.727h612v72h-612z"/>
        </g>
      </g>
    </clipPath>
    <clipPath id="q">
      <g>
        <g>
          <path d="m-2.8359-35.727h612v72h-612z"/>
        </g>
      </g>
    </clipPath>
    <clipPath id="p">
      <g>
        <g>
          <path d="m-2.8359-35.727h612v72h-612z"/>
        </g>
      </g>
    </clipPath>
    <clipPath id="o">
      <g>
        <g>
          <path d="m-2.8359-35.727h612v72h-612z"/>
        </g>
      </g>
    </clipPath>
    <clipPath id="n">
      <g>
        <g>
          <path d="m-2.8359-35.727h612v72h-612z"/>
        </g>
      </g>
    </clipPath>
    <clipPath id="m">
      <g>
        <g>
          <path d="m-2.8359-35.727h612v72h-612z"/>
        </g>
      </g>
    </clipPath>
    <clipPath id="l">
      <g>
        <g>
          <path d="m-2.8359-35.727h612v72h-612z"/>
        </g>
      </g>
    </clipPath>
    <clipPath id="k">
      <g>
        <g>
          <path d="m-2.8359-35.727h612v72h-612z"/>
        </g>
      </g>
    </clipPath>
    <clipPath id="j">
      <g>
        <g>
          <path d="m-2.8359-35.727h612v72h-612z"/>
        </g>
      </g>
    </clipPath>
    <clipPath id="i">
      <g>
        <g>
          <path d="m-2.8359-35.727h612v72h-612z"/>
        </g>
      </g>
    </clipPath>
    <clipPath id="h">
      <g>
        <g>
          <path d="m-2.8359-35.727h612v72h-612z"/>
        </g>
      </g>
    </clipPath>
    <clipPath id="g">
      <g>
        <g>
          <path d="m-2.8359-35.727h612v72h-612z"/>
        </g>
      </g>
    </clipPath>
    <clipPath id="f">
      <g>
        <g>
          <path d="m-2.8359-35.727h612v72h-612z"/>
        </g>
      </g>
    </clipPath>
    <clipPath id="e">
      <g>
        <g>
          <path d="m-2.8359-35.727h612v72h-612z"/>
        </g>
      </g>
    </clipPath>
    <clipPath id="d">
      <g>
        <g>
          <path d="m-2.8359-35.727h612v72h-612z"/>
        </g>
      </g>
    </clipPath>
    <clipPath id="c">
      <g>
        <g>
          <path d="m-2.8359-35.727h612v72h-612z"/>
        </g>
      </g>
    </clipPath>
    <clipPath id="b">
      <g>
        <g>
          <path d="m-2.8359-35.727h612v72h-612z"/>
        </g>
      </g>
    </clipPath>
    <clipPath id="a">
      <g>
        <g>
          <path d="m-2.8359-35.727h612v72h-612z"/>
        </g>
      </g>
    </clipPath>
  </defs>
  <path transform="translate(-.13281 -.13991)" d="m.13281.27257h1.8633" clip-path="url(#a)" fill="none" stroke="#000" stroke-linejoin="round" stroke-miterlimit="10" stroke-width=".26532"/>
  <path transform="translate(-.13281 -.13991)" d="m3.2852.27257h1.9297" clip-path="url(#b)" fill="none" stroke="#000" stroke-linejoin="round" stroke-miterlimit="10" stroke-width=".26532"/>
  <path transform="translate(-.13281 -.13991)" d="m5.2148.27257h1.8633" clip-path="url(#c)" fill="none" stroke="#000" stroke-linejoin="round" stroke-miterlimit="10" stroke-width=".26532"/>
  <path transform="translate(-.13281 -.13991)" d="m8.3672.27257h1.9297" clip-path="url(#d)" fill="none" stroke="#000" stroke-linejoin="round" stroke-miterlimit="10" stroke-width=".26532"/>
  <path transform="translate(-.13281 -.13991)" d="m10.297.27257h1.8633" clip-path="url(#e)" fill="none" stroke="#000" stroke-linejoin="round" stroke-miterlimit="10" stroke-width=".26532"/>
  <path transform="translate(-.13281 -.13991)" d="m13.449.27257h1.9297" clip-path="url(#f)" fill="none" stroke="#000" stroke-linejoin="round" stroke-miterlimit="10" stroke-width=".26532"/>
  <path transform="translate(-.13281 -.13991)" d="m15.379.27257h1.8633" clip-path="url(#g)" fill="none" stroke="#000" stroke-linejoin="round" stroke-miterlimit="10" stroke-width=".26532"/>
  <path transform="translate(-.13281 -.13991)" d="m18.531.27257h1.9297" clip-path="url(#h)" fill="none" stroke="#000" stroke-linejoin="round" stroke-miterlimit="10" stroke-width=".26532"/>
  <path transform="translate(-.13281 -.13991)" d="m20.461.27257h1.8633" clip-path="url(#i)" fill="none" stroke="#000" stroke-linejoin="round" stroke-miterlimit="10" stroke-width=".26532"/>
  <path transform="translate(-.13281 -.13991)" d="m23.609.27257h1.9336" clip-path="url(#j)" fill="none" stroke="#000" stroke-linejoin="round" stroke-miterlimit="10" stroke-width=".26532"/>
  <path transform="translate(-.13281 -.13991)" d="m25.543.27257h1.8633" clip-path="url(#k)" fill="none" stroke="#000" stroke-linejoin="round" stroke-miterlimit="10" stroke-width=".26532"/>
  <path transform="translate(-.13281 -.13991)" d="m28.691.27257h1.9336" clip-path="url(#l)" fill="none" stroke="#000" stroke-linejoin="round" stroke-miterlimit="10" stroke-width=".26532"/>
  <path transform="translate(-.13281 -.13991)" d="m30.625.27257h1.8633" clip-path="url(#m)" fill="none" stroke="#000" stroke-linejoin="round" stroke-miterlimit="10" stroke-width=".26532"/>
  <path transform="translate(-.13281 -.13991)" d="m33.773.27257h1.9297" clip-path="url(#n)" fill="none" stroke="#000" stroke-linejoin="round" stroke-miterlimit="10" stroke-width=".26532"/>
  <path transform="translate(-.13281 -.13991)" d="m35.703.27257h1.8672" clip-path="url(#o)" fill="none" stroke="#000" stroke-linejoin="round" stroke-miterlimit="10" stroke-width=".26532"/>
  <path transform="translate(-.13281 -.13991)" d="m38.855.27257h1.9297" clip-path="url(#p)" fill="none" stroke="#000" stroke-linejoin="round" stroke-miterlimit="10" stroke-width=".26532"/>
  <path transform="translate(-.13281 -.13991)" d="m40.785.27257h1.8672" clip-path="url(#q)" fill="none" stroke="#000" stroke-linejoin="round" stroke-miterlimit="10" stroke-width=".26532"/>
  <path transform="translate(-.13281 -.13991)" d="m43.938.27257h1.9297" clip-path="url(#r)" fill="none" stroke="#000" stroke-linejoin="round" stroke-miterlimit="10" stroke-width=".26532"/>
  <path transform="translate(-.13281 -.13991)" d="m45.867.27257h1.8672" clip-path="url(#s)" fill="none" stroke="#000" stroke-linejoin="round" stroke-miterlimit="10" stroke-width=".26532"/>
  <path transform="translate(-.13281 -.13991)" d="m49.02.27257h1.9297" clip-path="url(#t)" fill="none" stroke="#000" stroke-linejoin="round" stroke-miterlimit="10" stroke-width=".26532"/>
  <path transform="translate(-.13281 -.13991)" d="m50.949.27257h1.8672" clip-path="url(#u)" fill="none" stroke="#000" stroke-linejoin="round" stroke-miterlimit="10" stroke-width=".26532"/>
  <path transform="translate(-.13281 -.13991)" d="m54.102.27257h1.9297" clip-path="url(#v)" fill="none" stroke="#000" stroke-linejoin="round" stroke-miterlimit="10" stroke-width=".26532"/>
  <path transform="translate(-.13281 -.13991)" d="m56.031.27257h1.8672" clip-path="url(#w)" fill="none" stroke="#000" stroke-linejoin="round" stroke-miterlimit="10" stroke-width=".26532"/>
  <path transform="translate(-.13281 -.13991)" d="m59.184.27257h1.9297" clip-path="url(#x)" fill="none" stroke="#000" stroke-linejoin="round" stroke-miterlimit="10" stroke-width=".26532"/>
  <path transform="translate(-.13281 -.13991)" d="m61.113.27257h1.8672" clip-path="url(#y)" fill="none" stroke="#000" stroke-linejoin="round" stroke-miterlimit="10" stroke-width=".26532"/>
  <path transform="translate(-.13281 -.13991)" d="m64.266.27257h1.9297" clip-path="url(#z)" fill="none" stroke="#000" stroke-linejoin="round" stroke-miterlimit="10" stroke-width=".26532"/>
</svg>
