<svg width="13.501mm" height="2.6266mm" version="1.1" viewBox="0 -1.05 13.501 2.6266" xmlns="http://www.w3.org/2000/svg">
 <path d="m0.70046 0.1045h2.0002v-0.20003h-2.0002z" style="fill:#db4996"/>
 <path d="m1.6008 0.6044h0.20002v-0.69991h-0.20002z" style="fill:#db4996"/>
 <path d="m3.401 0.1052h2.0002v-0.20003h-2.0002z" style="fill:#db4996"/>
 <path d="m4.3006 0.6058h0.20038v-0.69991h-0.20038z" style="fill:#db4996"/>
 <path d="m8.8013 0.1066h1.9995v-0.20003h-1.9995z" style="fill:#db4996"/>
 <path d="m9.7009 0.6068h0.20002v-0.69956h-0.20002z" style="fill:#db4996"/>
 <path d="m11.501 0.108h2.0002v-0.19967h-2.0002z" style="fill:#db4996"/>
 <path d="m12.401 0.6079h0.20108v-0.69991h-0.20108z" style="fill:#db4996"/>
 <path d="m6.8455-0.7101c0-0.16016 0.12947-0.28998 0.28998-0.28998 0.15981 0 0.29034 0.12982 0.29034 0.28998 0 0.15981-0.13053 0.28963-0.29034 0.28963-0.16051 0-0.28998-0.12982-0.28998-0.28963z" style="fill:none;stroke-miterlimit:3.864;stroke-width:.099836;stroke:#db4996"/>
 <path d="m7.0311 1.3611c0.00635-0.16933 0.022579-0.79657 0.022579-1.8253 0.038806-0.00212 0.11112-0.00212 0.14958 0 0 1.0287 0.022225 1.6651 0.030339 1.8359 0 0.011642 0.017285 0.03175 7.143e-4 0.051506-0.023283 0.020108-0.097014 0.15346-0.097014 0.15346s-0.056444-0.11077-0.098778-0.15099c-0.013052-0.029986-0.00741-0.051858-0.00741-0.064558" style="fill:#db4996"/>
 <path d="m6.3738 0.7691c0.13229 0.32597 0.41416 0.49671 0.76553 0.48789 0.32985-0.00882 0.59549-0.15699 0.72954-0.45755l0.056444 0.030339c-0.14993 0.33584-0.42369 0.59161-0.79163 0.60113-0.39264 0.00988-0.66675-0.26988-0.81492-0.63465" style="fill:#db4996"/>
 <path d="m7.5754 0.816s0.19297-0.041628 0.30057-0.10301c0.046567-0.026811 0.10936-0.086783 0.13229-0.10478 0.00529-0.00459 0.016227 0.00212 0.015523 0.00917-0.00388 0.029633-0.022577 0.11748-0.02046 0.17321 0.00353 0.12912 0.068086 0.32456 0.068086 0.32456s-0.016579 0.024342-0.034925-0.019756c-0.0014-0.00317-0.11395-0.20073-0.13582-0.28258-0.08008 0.021519-0.28928 0.0254-0.2921 0.025753-0.052564 0.00176-0.033161-0.022578-0.033161-0.022578" style="fill:#db4996"/>
 <path d="m6.184 1.0675s0.060678-0.18732 0.061383-0.31115c0-0.053975-0.020815-0.13829-0.024694-0.16651-0.0014-0.00741 0.010231-0.014111 0.015523-0.00953 0.024342 0.018344 0.090311 0.077964 0.13935 0.10442 0.11359 0.062089 0.31574 0.10266 0.31574 0.10266s0.013052 0.026458-0.035278 0.021167c-0.00282-3.519e-4 -0.23001-0.00176-0.31221-0.023989-0.021167 0.080081-0.12277 0.26317-0.12382 0.26599-0.024342 0.045861-0.035983 0.016933-0.035983 0.016933" style="fill:#db4996"/>
 <path d="m6.6356 0.1323h0.99977v-0.14993h-0.99977z" style="fill:#db4996"/>
 <path d="m6.4599-0.8692 1.3367 2.3153" style="fill:#db4996;stroke-miterlimit:3.864;stroke-width:.099836;stroke:#db4996"/>
 <path d="m7.7966-0.8692-1.3367 2.3153" style="fill:#db4996;stroke-miterlimit:3.864;stroke-width:.099836;stroke:#db4996"/>
</svg>
