<svg width="3.4205mm" height="1.9531mm" version="1.1" viewBox="-1.9 -.96 3.4205 1.9531" xmlns="http://www.w3.org/2000/svg">
 <style/>
 <path d="m-1.3391 0.021436c-0.19458-0.12569-0.36271-0.30068-0.48383-0.48219" style="fill:none;stroke-miterlimit:3.864;stroke-width:.111;stroke:#db4996"/>
 <path d="m-1.8576 0.48241c0.14463-0.17107 0.32158-0.36695 0.51027-0.492" style="fill:none;stroke-miterlimit:3.864;stroke-width:.111;stroke:#db4996"/>
 <path d="m0.71535-0.3021c-0.075741 0.27391-0.06562 0.44531 0 0.68101" style="fill:none;stroke-miterlimit:3.864;stroke-width:.111;stroke:#db4996"/>
 <path d="m0.84491 0.0060904c0-0.03787 0.031341-0.068558 0.068885-0.068558 0.037545 0 0.068233 0.030688 0.068233 0.068558 0 0.037544-0.030688 0.068559-0.068233 0.068559-0.037544 0-0.068885-0.031015-0.068885-0.068559" style="fill:#db4996;stroke-width:.92543"/>
 <path d="m-1.3385 0.0090286c0.93792-0.5426 2.0868-0.53051 2.7698 3.265e-4 -0.67449 0.54912-1.8439 0.54096-2.7698-3.265e-4z" style="fill:none;stroke-miterlimit:3.864;stroke-width:.111;stroke:#db4996"/>
 <path d="m-0.99828 0.95345 1.948-1.8738" style="fill:none;stroke-miterlimit:3.864;stroke-width:.11;stroke:#db4996"/>
 <path d="m0.94969 0.95345-1.948-1.8738" style="fill:none;stroke-miterlimit:3.864;stroke-width:.11;stroke:#db4996"/>
</svg>
