<svg width="30.25mm" height="2.6267mm" version="1.1" viewBox="0 -1.3134 30.25 2.6267" xmlns="http://www.w3.org/2000/svg">
 <path d="m19.25 0.1h-2v-0.2h2z" style="fill:#db4996;stroke-width:2.0017"/>
 <path d="m18.35 0.85h-0.2v-0.755h0.2z" style="fill:#db4996;stroke-width:1.2299"/>
 <path d="m16.5 0.1h-2v-0.2h2z" style="fill:#db4996;stroke-width:2.0017"/>
 <path d="m15.6 0.85h-0.2v-0.755h0.2z" style="fill:#db4996;stroke-width:1.2299"/>
 <path d="m13.75 0.1h-2v-0.2h2z" style="fill:#db4996;stroke-width:2.0017"/>
 <path d="m12.85 0.85h-0.2v-0.755h0.2z" style="fill:#db4996;stroke-width:1.2299"/>
 <path d="m11 0.1h-2v-0.2h2z" style="fill:#db4996;stroke-width:2.0017"/>
 <path d="m10.1 0.85h-0.2v-0.755h0.2z" style="fill:#db4996;stroke-width:1.2299"/>
 <path d="m8.25 0.1h-2v-0.2h2z" style="fill:#db4996;stroke-width:2.0017"/>
 <path d="m7.35 0.85h-0.2v-0.755h0.2z" style="fill:#db4996;stroke-width:1.2299"/>
 <path d="m2.75 0.1h-2v-0.2h2z" style="fill:#db4996;stroke-width:2.0017"/>
 <path d="m1.85 0.85h-0.2v-0.755h0.2z" style="fill:#db4996;stroke-width:1.2299"/>
 <path d="m30.25 0.1h-2v-0.2h2z" style="fill:#db4996;stroke-width:2.0017"/>
 <path d="m29.35 0.85h-0.2v-0.755h0.2z" style="fill:#db4996;stroke-width:1.2299"/>
 <path d="m27.5 0.1h-2v-0.2h2z" style="fill:#db4996;stroke-width:2.0017"/>
 <path d="m26.6 0.85h-0.2v-0.755h0.2z" style="fill:#db4996;stroke-width:1.2299"/>
 <path d="m24.75 0.1h-2v-0.2h2z" style="fill:#db4996;stroke-width:2.0017"/>
 <path d="m23.85 0.85h-0.2v-0.755h0.2z" style="fill:#db4996;stroke-width:1.2299"/>
 <path d="m22 0.1h-2v-0.2h2z" style="fill:#db4996;stroke-width:2.0017"/>
 <path d="m21.1 0.85h-0.2v-0.755h0.2z" style="fill:#db4996;stroke-width:1.2299"/>
 <path d="m3.276 0.035196c-0.19458-0.12569-0.36271-0.30068-0.48383-0.48219" style="fill:none;stroke-miterlimit:3.864;stroke-width:.111;stroke:#db4996"/>
 <path d="m2.7575 0.49617c0.14463-0.17107 0.32158-0.36695 0.51027-0.492" style="fill:none;stroke-miterlimit:3.864;stroke-width:.111;stroke:#db4996"/>
 <path d="m5.3304-0.28834c-0.075741 0.27391-0.06562 0.44531 0 0.68101" style="fill:none;stroke-miterlimit:3.864;stroke-width:.111;stroke:#db4996"/>
 <path d="m5.46 0.019851c0-0.03787 0.031341-0.068558 0.068885-0.068558 0.037545 0 0.068233 0.030688 0.068233 0.068558 0 0.037544-0.030688 0.068559-0.068233 0.068559-0.037544 0-0.068885-0.031015-0.068885-0.068559" style="fill:#db4996;stroke-width:.92543"/>
 <path d="m3.2766 0.022789c0.93792-0.5426 2.0868-0.53051 2.7698 3.265e-4 -0.67449 0.54912-1.8439 0.54096-2.7698-3.265e-4z" style="fill:none;stroke-miterlimit:3.864;stroke-width:.111;stroke:#db4996"/>
 <path d="m3.6168 0.96721 1.948-1.8738" style="fill:none;stroke-miterlimit:3.864;stroke-width:.14086;stroke:#db4996"/>
 <path d="m5.5648 0.96721-1.948-1.8738" style="fill:none;stroke-miterlimit:3.864;stroke-width:.14086;stroke:#db4996"/>
</svg>
