<svg width="2.4996mm" height="2.4957mm" version="1.1" viewBox="-4.5 -2 2.4996 2.4957" xmlns="http://www.w3.org/2000/svg">
 <path d="m-2.0004-0.74674c0 0.17285-0.03281 0.33655-0.10199 0.48578-0.06364 0.15278-0.15279 0.28373-0.26734 0.3965-0.11102 0.111-0.24373 0.20016-0.39296 0.26378-0.15279 0.065532-0.31471 0.096396-0.48758 0.096396-0.17642 0-0.33464-0.030868-0.48743-0.096396-0.14922-0.063627-0.28198-0.15278-0.39666-0.26378-0.11084-0.11278-0.20002-0.24372-0.26734-0.3965-0.06555-0.14923-0.09828-0.31293-0.09828-0.48578 0-0.17641 0.03281-0.34011 0.09828-0.48934 0.06731-0.1491 0.15649-0.28182 0.26734-0.3965 0.11469-0.11278 0.24744-0.20003 0.39666-0.26925 0.15279-0.063627 0.31101-0.098171 0.48743-0.098171 0.17286 0 0.33479 0.034537 0.48758 0.098171 0.14922 0.069215 0.28194 0.15647 0.39296 0.26925 0.11455 0.11468 0.20369 0.2474 0.26734 0.3965 0.06921 0.14923 0.10199 0.31294 0.10199 0.48934zm-2.2321-0.29643v0.6185h1.9282v-0.6185z" style="fill:#db4996"/>
</svg>
