<?xml version="1.0" encoding="UTF-8" standalone="no"?>
<svg
   width="30.25mm"
   height="2.4957259mm"
   version="1.1"
   viewBox="0 -1.24786 30.25 2.4957259"
   id="svg6"
   sodipodi:docname="N2_2_EntryProhibited.svg"
   inkscape:version="1.1.2 (b8e25be833, 2022-02-05)"
   xmlns:inkscape="http://www.inkscape.org/namespaces/inkscape"
   xmlns:sodipodi="http://sodipodi.sourceforge.net/DTD/sodipodi-0.dtd"
   xmlns="http://www.w3.org/2000/svg"
   xmlns:svg="http://www.w3.org/2000/svg">
  <defs
     id="defs10" />
  <sodipodi:namedview
     id="namedview8"
     pagecolor="#505050"
     bordercolor="#ffffff"
     borderopacity="1"
     inkscape:pageshadow="0"
     inkscape:pageopacity="0"
     inkscape:pagecheckerboard="1"
     inkscape:document-units="mm"
     showgrid="false"
     inkscape:zoom="6.6566763"
     inkscape:cx="54.456607"
     inkscape:cy="-10.891321"
     inkscape:window-width="1920"
     inkscape:window-height="1009"
     inkscape:window-x="-8"
     inkscape:window-y="-8"
     inkscape:window-maximized="1"
     inkscape:current-layer="svg6"
     inkscape:snap-page="true"
     showguides="true"
     inkscape:guide-bbox="true"
     fit-margin-top="0"
     fit-margin-left="0"
     fit-margin-right="0"
     fit-margin-bottom="0">
    <sodipodi:guide
       position="0,1.2478659"
       orientation="0,1"
       id="guide5219"
       inkscape:label=""
       inkscape:locked="false"
       inkscape:color="rgb(0,0,255)" />
  </sodipodi:namedview>
  <path
     d="m 19.25,0.1000029 h -2 v -0.2 h 2 z"
     style="fill:#db4996;fill-opacity:1;stroke-width:2.0017"
     id="path2" />
  <path
     d="m 18.35,0.8500029 h -0.2 v -0.755 h 0.2 z"
     style="fill:#db4996;fill-opacity:1;stroke-width:1.2299"
     id="path4" />
  <path
     d="m 16.5,0.1000029 h -2 v -0.2 h 2 z"
     style="fill:#db4996;fill-opacity:1;stroke-width:2.0017"
     id="path2-8" />
  <path
     d="m 15.6,0.8500029 h -0.2 v -0.755 h 0.2 z"
     style="fill:#db4996;fill-opacity:1;stroke-width:1.2299"
     id="path4-7" />
  <path
     d="m 13.75,0.1000029 h -2 v -0.2 h 2 z"
     style="fill:#db4996;fill-opacity:1;stroke-width:2.0017"
     id="path2-8-7" />
  <path
     d="m 12.85,0.8500029 h -0.2 v -0.755 h 0.2 z"
     style="fill:#db4996;fill-opacity:1;stroke-width:1.2299"
     id="path4-7-7" />
  <path
     d="M 11,0.1000029 H 9 v -0.2 h 2 z"
     style="fill:#db4996;fill-opacity:1;stroke-width:2.0017"
     id="path2-8-78" />
  <path
     d="M 10.1,0.8500029 H 9.9 v -0.755 h 0.2 z"
     style="fill:#db4996;fill-opacity:1;stroke-width:1.2299"
     id="path4-7-6" />
  <path
     d="m 8.25,0.1000029 h -2 v -0.2 h 2 z"
     style="fill:#db4996;fill-opacity:1;stroke-width:2.0017"
     id="path2-8-7-5" />
  <path
     d="m 7.35,0.8500029 h -0.2 v -0.755 h 0.2 z"
     style="fill:#db4996;fill-opacity:1;stroke-width:1.2299"
     id="path4-7-7-5" />
  <path
     d="m 2.75,0.1000029 h -2 v -0.2 h 2 z"
     style="fill:#db4996;fill-opacity:1;stroke-width:2.0017"
     id="path2-8-7-0" />
  <path
     d="m 1.85,0.8500029 h -0.2 v -0.755 h 0.2 z"
     style="fill:#db4996;fill-opacity:1;stroke-width:1.2299"
     id="path4-7-7-1" />
  <path
     d="m 30.25,0.1000029 h -2 v -0.2 h 2 z"
     style="fill:#db4996;fill-opacity:1;stroke-width:2.0017"
     id="path2-8-7-5-6-8" />
  <path
     d="m 29.35,0.8500029 h -0.2 v -0.755 h 0.2 z"
     style="fill:#db4996;fill-opacity:1;stroke-width:1.2299"
     id="path4-7-7-5-6-7" />
  <path
     d="m 27.5,0.1000029 h -2 v -0.2 h 2 z"
     style="fill:#db4996;fill-opacity:1;stroke-width:2.0017"
     id="path2-8-7-5-6-8-3" />
  <path
     d="m 26.6,0.8500029 h -0.2 v -0.755 h 0.2 z"
     style="fill:#db4996;fill-opacity:1;stroke-width:1.2299"
     id="path4-7-7-5-6-7-8" />
  <path
     d="m 24.75,0.1000029 h -2 v -0.2 h 2 z"
     style="fill:#db4996;fill-opacity:1;stroke-width:2.0017"
     id="path2-8-7-5-6-7" />
  <path
     d="m 23.85,0.8500029 h -0.2 v -0.755 h 0.2 z"
     style="fill:#db4996;fill-opacity:1;stroke-width:1.2299"
     id="path4-7-7-5-6-70" />
  <path
     d="m 22,0.1000029 h -2 v -0.2 h 2 z"
     style="fill:#db4996;fill-opacity:1;stroke-width:2.0017"
     id="path2-8-7-5-6-8-4" />
  <path
     d="m 21.1,0.8500029 h -0.2 v -0.755 h 0.2 z"
     style="fill:#db4996;fill-opacity:1;stroke-width:1.2299"
     id="path4-7-7-5-6-7-4" />
  <path
     d="m 5.749784,0.0054007 c 0,0.1728505 -0.03281,0.3365535 -0.101988,0.485782 -0.06364,0.1527845 -0.152788,0.2837251 -0.267335,0.3965046 -0.111019,0.110998 -0.243734,0.2001555 -0.392959,0.2637825 -0.152788,0.065532 -0.314713,0.096396 -0.487575,0.096396 -0.176424,0 -0.334645,-0.030868 -0.487433,-0.096396 C 3.863269,1.0878428 3.730519,0.9986853 3.615831,0.8876873 3.504988,0.7749078 3.415806,0.6439672 3.348496,0.4911827 3.282946,0.3419542 3.250216,0.1782512 3.250216,0.0054007 c 0,-0.17640662 0.03281,-0.34011312 0.09828,-0.48934162 0.06731,-0.1491015 0.156492,-0.2818201 0.267335,-0.3965011 C 3.730519,-0.99322152 3.863269,-1.080474 4.012494,-1.149689 4.165282,-1.213316 4.323503,-1.24786 4.499927,-1.24786 c 0.172862,0 0.334787,0.034537 0.487575,0.098171 0.149225,0.069215 0.28194,0.15646748 0.392959,0.26924698 0.114547,0.114681 0.203694,0.2473996 0.267335,0.3965011 0.06921,0.1492285 0.101988,0.312935 0.101988,0.48934162 z M 3.517688,-0.29102442 V 0.3274762 h 1.928178 v -0.61850062 z"
     style="fill:#db4996;fill-opacity:1;fill-rule:nonzero;stroke:none;stroke-width:0.352778"
     id="path1696" />
</svg>
