<svg width="12.41mm" height="1.7118mm" version="1.1" viewBox="0 -.86 13.41 1.7118" xmlns="http://www.w3.org/2000/svg">
 <path d="m1 0.093521h2.0002v-0.20003h-2.0002z" style="fill:#db4996"/>
 <path d="m1.9003 0.59342h0.20002v-0.69991h-0.20002z" style="fill:#db4996"/>
 <path d="m3.7005 0.094221h2.0002v-0.20003h-2.0002z" style="fill:#db4996"/>
 <path d="m4.6001 0.59482h0.20038v-0.69991h-0.20038z" style="fill:#db4996"/>
 <path d="m11.41 0.080061h2.0002v-0.19967h-2.0002z" style="fill:#db4996"/>
 <path d="m12.31 0.57996h0.20108v-0.69991h-0.20108z" style="fill:#db4996"/>
 <path d="m7.3167 0.0071863c-0.21026-0.13582-0.39194-0.32491-0.52282-0.52105" style="fill:none;stroke-miterlimit:3.864;stroke-width:.11994;stroke:#db4996"/>
 <path d="m6.7564 0.50531c0.15628-0.18486 0.34749-0.39652 0.55139-0.53164" style="fill:none;stroke-miterlimit:3.864;stroke-width:.11994;stroke:#db4996"/>
 <path d="m9.5367-0.34242c-0.081844 0.29598-0.070908 0.48119 0 0.73589" style="fill:none;stroke-miterlimit:3.864;stroke-width:.11994;stroke:#db4996"/>
 <path d="m9.6767-0.0093957c0-0.040922 0.033867-0.074083 0.074436-0.074083 0.04057 0 0.073731 0.033161 0.073731 0.074083 0 0.040569-0.033161 0.074083-0.073731 0.074083-0.040569 0-0.074436-0.033514-0.074436-0.074083" style="fill:#db4996"/>
 <path d="m7.3174-0.0062207c1.0135-0.58632 2.255-0.57326 2.993 3.5278e-4 -0.72884 0.59337-1.9925 0.58455-2.993-3.5278e-4z" style="fill:none;stroke-miterlimit:3.864;stroke-width:.11994;stroke:#db4996"/>
 <path d="m7.8941 0.8094 1.6267-1.627" style="fill:none;stroke-miterlimit:3.864;stroke-width:.11994;stroke:#db4996"/>
 <path d="m9.5208 0.8094-1.6267-1.627" style="fill:none;stroke-miterlimit:3.864;stroke-width:.11994;stroke:#db4996"/>
</svg>
