<svg width="2.5513mm" height="2.1337mm" version="1.1" viewBox="-.91 -1.83 2.5513 2.1337" xmlns="http://www.w3.org/2000/svg">
 <g transform="translate(-6.2653 -5.565)">
  <path d="m5.3553 5.5654h0.65758" style="fill:none;stroke-miterlimit:3.864;stroke-width:.11994;stroke:#231f20"/>
  <path d="m6.5082 5.5654h0.6671" style="fill:none;stroke-miterlimit:3.864;stroke-width:.12;stroke:#231f20"/>
  <path d="m6.161 5.3428s-0.074436-1.0093 0.017286-1.5956c0.00282-0.017992 0.029986-0.013406 0.031397-0.00388 0.11677 0.88582 0.11183 1.5663 0.11183 1.5663" style="fill:#231f20"/>
  <path d="m6.1783 4.8493s-0.56162-0.44838-0.77364-0.48436c-0.00847-0.00141-0.049389-0.00706-0.040217 0.00564 0.00353 0.00529 0.00917 6e-3 0.013758 0.00882 0.28822 0.19121 0.76835 0.75459 0.79093 0.92851 0.039864-0.15487 0.00917-0.45861 0.00917-0.45861" style="fill:#231f20"/>
  <path d="m7.8907 4.4242c-1.2651 0.047272-1.4774 0.75988-1.5667 0.88371-0.086078 0.11889-0.067733-0.13088-0.068439-0.21484-0.033514 0.0254 0.20249-0.74189 1.6224-0.69497 0 0 0.032456 0.00388 0.028222 0.015169-0.00212 0.0067-0.015522 0.010936-0.015522 0.010936" style="fill:#231f20"/>
  <circle cx="6.2651" cy="5.5658" r=".2429" style="fill:none;opacity:.99;stroke-width:.12;stroke:#231f20"/>
 </g>
</svg>
