<svg width="2.4459mm" height="3.1606mm" version="1.1" viewBox="-1.2 -2.86 2.4459 3.1606" xmlns="http://www.w3.org/2000/svg">
 <path d="m-0.23794 6.916e-4c0-0.133 0.1076-0.24059 0.23989-0.24059 0.13264 0 0.23989 0.1076 0.23989 0.24059 0 0.13229-0.10724 0.23989-0.23989 0.23989-0.13229 0-0.23989-0.1076-0.23989-0.23989z" style="fill:none;stroke-miterlimit:3.864;stroke-width:.11994;stroke:#231f20"/>
 <path d="m-0.89794 6.916e-4h0.65722" style="fill:none;stroke-miterlimit:3.864;stroke-width:.11994;stroke:#231f20"/>
 <path d="m0.23546 6.916e-4h0.6664" style="fill:none;stroke-miterlimit:3.864;stroke-width:.11994;stroke:#231f20"/>
 <path d="m-0.15824-0.14961c0.011289-0.088194 0.12136-0.80469 0.088194-1.301-0.20567-0.20567-0.40217-0.42686-0.44168-0.47449-0.00494-0.00564 0.00282-0.011642 0.00282-0.011642l0.41698 0.18874s-0.029633-0.51188-0.11218-0.71261c-0.00282 0.00141 0.012347-0.013758 0.01658 0 0.13229 0.22049 0.23883 0.44803 0.24977 0.65722 0.15699-0.078317 0.31221-0.10266 0.34537-0.10513 0.00388-7.055e-4 0.00423 0.013053 0.00423 0.013053s-0.29422 0.21343-0.30551 0.45614c-0.010936 0.24236 0.022225 1.1134 0.055386 1.2347 0.032808 0.12136-0.088194-0.15452-0.31997 0.055033" style="fill:#231f20"/>
 <path d="m-0.37694-2.6508c0.039158-0.17216 0.29774-0.30586 0.50941-0.11783 0.22437-0.17074 0.43145-0.086078 0.43886 0.12665-0.1016-0.15769-0.29527-0.17709-0.46567-0.034925l-0.030692-0.047625c-0.064206-0.099836-0.31362-0.060678-0.38559 0.11359l-0.020108 0.049036c-0.18732-0.089606-0.46955-0.081492-0.68121 0.18521 0.086431-0.27622 0.3369-0.42298 0.635-0.27411" style="fill:#231f20"/>
 <path d="m-0.69164-2.1347c0.056092-0.084667 0.16616-0.17145 0.33055-0.11642-0.17992 0.022578-0.22931 0.10936-0.27411 0.25753-0.18979-0.10336-0.39687-0.093486-0.5648-0.045861 0.027517-0.044803 0.3683-0.15381 0.50835-0.09525" style="fill:#231f20"/>
 <path d="m0.28176-2.1491c0.18803-0.2667 0.40711-0.16933 0.49389 0.039158 0.15734-0.038453 0.29774-0.11783 0.47025 0.07867-0.19579-0.10195-0.32914-0.055033-0.52282 0.023283-0.062089-0.19897-0.16722-0.29069-0.44132-0.14111" style="fill:#231f20"/>
</svg>
