<svg width="1.8069mm" height="2.6349mm" version="1.1" viewBox="-.91 -2.34 1.8069 2.6349" xmlns="http://www.w3.org/2000/svg">
 <path d="m-0.2313 3e-4c0-0.13018 0.10619-0.23636 0.23742-0.23636s0.23742 0.10619 0.23742 0.23636-0.10619 0.23566-0.23742 0.23566-0.23742-0.10548-0.23742-0.23566z" style="fill:none;stroke-miterlimit:3.864;stroke-width:.11783;stroke:#231f20"/>
 <path d="m-0.8846 3e-4h0.65052" style="fill:none;stroke-miterlimit:3.864;stroke-width:.11783;stroke:#231f20"/>
 <path d="m0.2372 3e-4h0.65969" style="fill:none;stroke-miterlimit:3.864;stroke-width:.11783;stroke:#231f20"/>
 <path d="m0.2312-1.8461c-0.069497 0.23848-0.12876 0.56021-0.12241 0.96132 0.19932-0.074436 0.45755-0.28258 0.74965-1.4104-0.01905 0.88653-0.36477 1.4958-0.72355 1.5847-0.10805 0.028136-0.13487 0.032314-0.21542 0.012347-0.52352-0.20532-0.70462-0.58102-0.8295-1.4637 0.014817-0.015169 0.016933-0.00318 0.018697 0.00141 0.24624 0.64029 0.23883 1.0474 0.84102 1.2908 0.00212-0.13652 0.013758-0.59196 0.090311-0.78564 0.027164-0.068086 0.043744-0.16263 0.10724-0.23848-0.099836-0.017992-0.22684-0.23142-0.24059-0.387 0.093839 0.13088 0.13582 0.27622 0.27093 0.26247 0.082197-0.00847 0.21061-0.20743 0.2226-0.32173 0.043744 0.16651-0.10231 0.33196-0.16898 0.49389" style="fill:#231f20"/>
 <path d="m0.0288-0.2493-5.061e-4 -0.49054" style="fill:none;stroke-width:.22;stroke:#231f20"/>
</svg>
