<svg width="2.0209mm" height="2.8116mm" version="1.1" viewBox="-.99 -2.51 2.0209 2.8116" xmlns="http://www.w3.org/2000/svg">
 <g transform="translate(-4.9017 -3.2891)">
  <path d="m4.6669 3.2904c0-0.13229 0.1076-0.23989 0.23989-0.23989 0.13264 0 0.23989 0.1076 0.23989 0.23989 0 0.13264-0.10724 0.23989-0.23989 0.23989-0.13229 0-0.23989-0.10724-0.23989-0.23989z" style="fill:none;stroke-miterlimit:3.864;stroke-width:.11994;stroke:#231f20"/>
  <path d="m4.0068 3.2904h0.65722" style="fill:none;stroke-miterlimit:3.864;stroke-width:.11994;stroke:#231f20"/>
  <path d="m5.1403 3.2904h0.6664" style="fill:none;stroke-miterlimit:3.864;stroke-width:.11994;stroke:#231f20"/>
  <path d="m4.8888 3.0216v-0.43004" style="fill:none;stroke-miterlimit:3.864;stroke-width:.20002;stroke:#231f20"/>
  <path d="m4.8323 2.5545 0.075847-0.039158c0.17921 0.16933 0.40428 0.23495 0.57538-0.068439 0.26141-0.014464 0.3115-0.1397 0.31115-0.23142 0-0.092075-0.073025-0.2727-0.23001-0.28998l-0.097014-0.010584c0.1203-0.13335 0.18979-0.27129 0.1337-0.3877-0.033514-0.069497-0.075847-0.14746-0.27622-0.16898 0.036689-0.22789-0.11818-0.36477-0.26705-0.41028-0.11783-0.035983-0.21131-0.030692-0.34713 0.14429-0.37042-0.076906-0.54575-0.0508-0.44591 0.40322-0.4124 0.051858-0.20567 0.36618 0.020108 0.50447-0.15028 0.14182-0.14993 0.32173-0.044097 0.45544 0.062442 0.07867 0.13476 0.16933 0.31009 0.15064 0.10795-0.011642 0.21555-0.038806 0.2921-0.05715l0.033161 0.093839c-0.08008 0.018697-0.20214 0.051153-0.31468 0.062794-0.57291 0.061383-0.60008-0.45685-0.43321-0.68756-0.26458-0.1972-0.2734-0.5334 0.016933-0.60501-0.08502-0.49142 0.27693-0.47837 0.52493-0.43074 0.38276-0.46249 0.77294-0.036689 0.76623 0.28857 0.37959 0.058914 0.40569 0.30057 0.2346 0.55492 0.34854 0.13441 0.43639 0.67098-0.12771 0.7179-0.16616 0.27058-0.43674 0.26741-0.65405 0.095603" style="fill:#231f20"/>
  <path d="m4.6288 2.0415c0-0.028928 0.023636-0.052211 0.052564-0.052211s0.052564 0.023283 0.052564 0.052211c0 0.029281-0.023636 0.052564-0.052564 0.052564s-0.052564-0.023283-0.052564-0.052564" style="fill:#231f20"/>
  <path d="m4.4863 1.4055c0-0.029281 0.023283-0.052564 0.052211-0.052564 0.029281 0 0.052564 0.023283 0.052564 0.052564 0 0.028928-0.023283 0.052564-0.052564 0.052564-0.028928 0-0.052211-0.023636-0.052211-0.052564" style="fill:#231f20"/>
  <path d="m4.9184 1.2287c0-0.028928 0.023283-0.052211 0.052564-0.052211 0.028928 0 0.052211 0.023283 0.052211 0.052211s-0.023283 0.052211-0.052211 0.052211c-0.029281 0-0.052564-0.023283-0.052564-0.052211" style="fill:#231f20"/>
  <path d="m5.0683 1.5554c0-0.028928 0.023283-0.052211 0.052564-0.052211 0.028928 0 0.052211 0.023283 0.052211 0.052211s-0.023283 0.052211-0.052211 0.052211c-0.029281 0-0.052564-0.023283-0.052564-0.052211" style="fill:#231f20"/>
  <path d="m4.742 1.7142c0-0.029281 0.023283-0.052564 0.052211-0.052564 0.029281 0 0.052564 0.023283 0.052564 0.052564 0 0.028928-0.023283 0.052564-0.052564 0.052564-0.028928 0-0.052211-0.023636-0.052211-0.052564" style="fill:#231f20"/>
  <path d="m5.2267 1.802c0-0.028928 0.023636-0.052211 0.052564-0.052211s0.052564 0.023283 0.052564 0.052211c0 0.029281-0.023636 0.052917-0.052564 0.052917s-0.052564-0.023636-0.052564-0.052917" style="fill:#231f20"/>
  <path d="m5.0595 2.0934c0-0.028575 0.023283-0.051858 0.052211-0.051858 0.029281 0 0.052564 0.023283 0.052564 0.051858 0 0.028928-0.023283 0.052564-0.052564 0.052564-0.028928 0-0.052211-0.023636-0.052211-0.052564" style="fill:#231f20"/>
  <path d="m5.0683 2.4109c0-0.028928 0.023283-0.052564 0.052564-0.052564 0.028928 0 0.052211 0.023636 0.052211 0.052564 0 0.029281-0.023283 0.052564-0.052211 0.052564-0.029281 0-0.052564-0.023283-0.052564-0.052564" style="fill:#231f20"/>
  <path d="m5.359 2.2521c0-0.028928 0.023636-0.052211 0.052564-0.052211s0.052564 0.023283 0.052564 0.052211-0.023636 0.052564-0.052564 0.052564-0.052564-0.023636-0.052564-0.052564" style="fill:#231f20"/>
  <path d="m4.3713 1.838c0-0.029281 0.023283-0.052564 0.052564-0.052564 0.028928 0 0.052564 0.023283 0.052564 0.052564 0 0.028928-0.023636 0.052211-0.052564 0.052211-0.029281 0-0.052564-0.023283-0.052564-0.052211" style="fill:#231f20"/>
  <path d="m4.4594 2.2874c0-0.029281 0.023283-0.052564 0.052564-0.052564 0.028928 0 0.052564 0.023283 0.052564 0.052564 0 0.028928-0.023636 0.052564-0.052564 0.052564-0.029281 0-0.052564-0.023636-0.052564-0.052564" style="fill:#231f20"/>
 </g>
</svg>
