<svg width="1.7812mm" height="2.715mm" version="1.1" viewBox="-.87 -2.41 1.7812 2.715" xmlns="http://www.w3.org/2000/svg">
 <g transform="translate(-6.0667 -5.8305)">
  <path d="m5.1965 5.8348h0.65017" style="fill:none;stroke-miterlimit:3.864;stroke-width:.11994;stroke:#231f20"/>
  <path d="m6.318 5.8348h0.65969" style="fill:none;stroke-miterlimit:3.864;stroke-width:.11994;stroke:#231f20"/>
  <path d="m6.0803 5.5667-0.039864-1.8591" style="fill:none;stroke-miterlimit:3.864;stroke-width:.14993;stroke:#231f20"/>
  <path d="m5.9928 3.8956c-0.041981 0.051153-0.17992 0.13935-0.36266 0.20108-0.00776 0.00282-0.029633 0.013758-0.030692 0.00176-7.056e-4 -0.00917 0.010231-0.011642 0.017286-0.016933 0.21343-0.15346 0.27517-0.34361 0.38029-0.63112 0.00247-0.00564 0.00811-0.030339 0.013053-0.029986 0.00917 3.528e-4 0.012347 0.015522 0.014111 0.01905 0.13229 0.26529 0.24906 0.45614 0.46531 0.61066 0.00847 6e-3 0.021872 0.014817 0.020461 0.020461-0.00141 0.00847-0.01658 0.00282-0.03175-0.00564-0.14534-0.053622-0.39229-0.12806-0.43356-0.1778-0.043744-0.053269-0.00811-0.044097-0.051858 0.00847" style="fill:#231f20"/>
  <path d="m6.0757 4.5098c-0.12065 6e-3 -0.375 0.12982-0.6036 0.18803-0.00635 0.00176-0.021872 0.010936-0.025047 0.00176-0.00282-0.00847 0.00917-0.012347 0.015522-0.016933 0.22895-0.15698 0.45508-0.35524 0.5909-0.629 0.13617 0.27481 0.32808 0.44626 0.62124 0.58773 0.00706 0.00353 0.023283 0.00706 0.021519 0.017639-0.00176 0.011994-0.020814 0.00317-0.031044 0.00176-0.15628-0.017282-0.48754-0.10689-0.58949-0.15099" style="fill:#231f20"/>
  <path d="m6.0601 5.2164c-0.041981 0.051506-0.46531 0.1838-0.71226 0.25612-0.00988 0.00247-0.028222 0.00811-0.032456 0.00176-0.00282-0.00459 0.016581-0.014817 0.024342-0.019755 0.30868-0.17109 0.58526-0.39299 0.72108-0.6671 0.13582 0.27376 0.43392 0.45014 0.73131 0.59126 0.00811 0.00423 0.023283 0.0067 0.020461 0.017286-0.00247 0.00988-0.018344 6e-3 -0.025753 0.00459-0.23918-0.030692-0.56127-0.078317-0.72672-0.18415" style="fill:#231f20"/>
  <path d="m5.8337 5.8348c0-0.13229 0.10654-0.24024 0.23742-0.24024 0.13123 0 0.23777 0.10795 0.23777 0.24024 0 0.13264-0.10654 0.24059-0.23777 0.24059-0.13088 0-0.23742-0.10795-0.23742-0.24059z" style="fill:none;stroke-miterlimit:3.864;stroke-width:.11994;stroke:#231f20"/>
 </g>
</svg>
