<svg width="1.8565mm" height="2.6033mm" version="1.1" viewBox="-.95 -2.3 1.8565 2.6033" xmlns="http://www.w3.org/2000/svg">
 <path d="m-0.23625 0.0027018c0-0.13264 0.1076-0.24024 0.24059-0.24024 0.13264 0 0.24024 0.1076 0.24024 0.24024s-0.1076 0.24024-0.24024 0.24024c-0.133 0-0.24059-0.1076-0.24059-0.24024z" style="fill:none;stroke-miterlimit:3.864;stroke-width:.11994;stroke:#231f20"/>
 <path d="m-0.89775 0.0027018h0.65864" style="fill:none;stroke-miterlimit:3.864;stroke-width:.11994;stroke:#231f20"/>
 <path d="m0.23825 0.0027018h0.66781" style="fill:none;stroke-miterlimit:3.864;stroke-width:.11994;stroke:#231f20"/>
 <path d="m0.003947-0.2654v-0.43004" stroke-width=".20002" style="fill:none;stroke-miterlimit:3.864;stroke:#231f20"/>
 <path d="m0.46825-1.9778c0.36089 0.08255 0.3496 0.40076 0.24483 0.66216l-0.032103 0.073025c0.081492 0.1203 0.2219 0.36583 0.00423 0.59267-0.19473 0.20249-0.4445 0.16404-0.64876 0.026106l-0.040217-0.028928-0.055386 0.018697-0.041628-0.093486c0.046919-0.014111 0.091369-0.048683 0.091369-0.048683 0.16828 0.12488 0.41663 0.22684 0.60466 0.041981 0.15416-0.15169 0.075142-0.34925-0.03175-0.5013 0.063853-0.11465 0.127-0.30621 0.062089-0.46038-0.03351-0.080081-0.07796-0.16757-0.22366-0.19191l-0.049742-0.11112c-0.11007-0.23989-0.27199-0.26-0.49812-0.085019-0.28998-0.096308-0.45896 0.030339-0.42263 0.34925-0.39405 0.049036-0.32456 0.41346-0.061736 0.57397l-0.047625 0.044803c-0.0762 0.071614-0.032456 0.21237 0.043744 0.31291 0.062442 0.082197 0.13229 0.12665 0.28716 0.11289 0.10089-0.00917 0.16898-0.021872 0.25188-0.039864l0.021167 0.097367c-0.086431 0.01905-0.15663 0.041275-0.26247 0.0508-0.35489 0.032102-0.62547-0.32244-0.45085-0.56092-0.27975-0.21625-0.1711-0.60325 0.10971-0.67592-0.018697-0.387 0.31962-0.42792 0.51223-0.37606 0.26599-0.19368 0.48824-0.10866 0.60889 0.15416" fill="#231f20"/>
</svg>
