<svg width="2.9324mm" height="3.2807mm" version="1.1" viewBox="-1.3 -2.98 2.9324 3.2807" xmlns="http://www.w3.org/2000/svg">
 <path d="m-0.23712 0.0017277c0-0.13159 0.10795-0.23918 0.2413-0.23918s0.2413 0.1076 0.2413 0.23918c0 0.13229-0.10795 0.23918-0.2413 0.23918s-0.2413-0.10689-0.2413-0.23918z" style="fill:none;stroke-miterlimit:3.864;stroke-width:.12;stroke:#231f20"/>
 <path d="m-0.90062 0.0017277h0.66076" style="fill:#000000;stroke-miterlimit:3.864;stroke-width:.12;stroke:#231f20"/>
 <path d="m0.23878 0.0017277h0.67028" style="fill:none;stroke-miterlimit:3.864;stroke-width:.12;stroke:#231f20"/>
 <path d="m0.98208-1.645c0.12876-0.023283 0.36583-0.022225 0.59302 0.24201 0.00141 0.021167-0.027517 0.00811-0.069145-0.033161-0.19685-0.14252-0.32526-0.16545-0.50165-0.14005-0.064559 0.00988-0.060678 0.1591 0.014111 0.31785 0.017286 0.027517 0.0067 0.055034-0.00847 0.039159-0.077961-0.068087-0.13299-0.2914-0.10618-0.37959-0.078317-0.07232-0.2473-0.23707-0.27728-0.32244-0.18803 0.18944-0.33232 0.42863-0.41628 0.6731 0.096662-0.012347 0.25823-0.00706 0.38382 0.13088 0.014111 0.013758-0.032103 0.00706-0.04692 0.00282-0.1711-0.049036-0.31009 0.00423-0.38806 0.048331-0.011289 0.0508-0.019403 0.10195-0.024695 0.15205-0.067381 0.63042-0.043745 0.66993-0.043745 0.66993h-0.20108s0.070203-0.65123-0.16545-1.0322c-0.085726-0.052915-0.16898-0.051151-0.2346 0.00282l-0.020461 0.17569-0.020109-0.13229c-0.024695 0.033514-0.045156 0.077612-0.058914 0.1337-0.022578-0.086784-0.00141-0.14605 0.070909-0.21167 0.06597-0.059973 0.12241-0.081845 0.17639-0.077259-0.11959-0.12735-0.30868-0.26705-0.4886-0.37042-0.22402-0.12841-0.41416-0.16404-0.44309-0.20003-0.01517-0.02611 0.00176-0.03246 0.035984-0.0088 0.01905 0.01305 0.098778 0.03281 0.13159 0.03634 0.088901 0.0099 0.1838 0.03598 0.2794 0.07585-0.00317-0.0889-0.035278-0.26317-0.097367-0.37889-0.0254-0.04692-0.055739-0.11853-0.046214-0.11994 0.022225-0.0035 0.022225 0.0088 0.10125 0.13159 0.070556 0.10901 0.13511 0.24589 0.15734 0.42016 0.32526 0.16757 0.63112 0.4632 0.70027 0.70979 0.063148-0.14182 0.15134-0.32244 0.26458-0.50236-0.0635-0.061031-0.17639-0.15487-0.31962-0.2914-0.248-0.03493-0.37571-0.3168-0.32632-0.43604 0.034573 0.16722 0.10971 0.26952 0.20814 0.30868 0.026106 0.01094 0.074789-0.01164 0.098426-0.0095 0.133 0.01094 0.16616 0.01976 0.18168-0.14746-0.00353-0.0194 0.010936-0.06562 0.021872-0.04763 0.035631 0.14041 0.00776 0.28998-0.10583 0.28998l0.29986 0.24519c0.098778-0.14464 0.21414-0.28364 0.34608-0.39758-0.071614-0.07832-0.13829-0.3623-0.15487-0.43674-0.10654-0.0261-0.19297-0.23284-0.18027-0.38594 0.011642-0.02117 0.026811-0.0088 0.029281 0.02434 0.00741 0.09772 0.079023 0.30939 0.20779 0.2921 0.089606-0.01164 0.17886-0.12735 0.22754-0.3295 0.0067-0.04692 0.028928-0.07902 0.041628-0.06174-0.033867 0.15769-0.050448 0.39547-0.24589 0.45332 0.00811 0.06103 0.064912 0.25753 0.14817 0.38559 0.13053-0.09702 0.27552-0.16792 0.43604-0.19332 0.015169-0.09525 0.096309-0.44098 0.46214-0.32209 0.019756 0.0063 0.032103 0.02505 0.018345 0.02716-0.24589-0.0194-0.36407 0.08749-0.38312 0.28434 0.064559-0.0028 0.13123 0.0021 0.20038 0.01446 0.010936 0.0092-0.0127 0.01729-0.043039 0.01729-0.27129 0.02223-0.51612 0.14887-0.71756 0.33267 0.032103 0.04974 0.1898 0.28681 0.2988 0.33091" fill="#231f20" style="fill:#000000;stroke-width:.35278"/>
</svg>
