<svg width="2.5609mm" height="3.3005mm" version="1.1" viewBox="-1.67 -3 2.5609 3.3005" xmlns="http://www.w3.org/2000/svg">
 <g transform="translate(-4.0927 -4.3489)">
  <path d="m3.8558 4.3495c0-0.13229 0.10619-0.23954 0.23742-0.23954 0.13123 0 0.23742 0.10724 0.23742 0.23954s-0.10619 0.23954-0.23742 0.23954c-0.13123 0-0.23742-0.10724-0.23742-0.23954z" style="fill:none;opacity:.99;stroke-miterlimit:3.864;stroke-width:.11994;stroke:#231f20"/>
  <path d="m3.2028 4.3495h0.65017" style="fill:none;opacity:.99;stroke-miterlimit:3.864;stroke-width:.11994;stroke:#231f20"/>
  <path d="m4.3243 4.3495h0.65969" style="fill:none;opacity:.99;stroke-miterlimit:3.864;stroke-width:.11994;stroke:#231f20"/>
  <path d="m3.9768 4.081c0.020814-0.91299-0.19297-1.6185-0.44132-1.8609-0.0254-0.025047-0.065617-0.093839-0.081844-0.10478-0.00176-0.00106 0.099131-0.032103 0.1203-0.054681 0.5013 0.49495 0.62159 1.2598 0.62689 2.0249" style="fill:#231f20;opacity:.99"/>
  <path d="m2.4231 1.3547c-7.056e-4 -0.00741 0.00635-0.00811 0.043039-0.00282 0.16475 0.024342 0.75001 0.15452 1.0816 0.59831 0.22542-0.21237 0.41804-0.35278 0.76729-0.32632 0.011642 0.00176 0.026811 0.00459 0.023989 0.011289-0.00212 0.00564-0.022225 0.00706-0.032103 0.00953-0.27411 0.070556-0.60466 0.26741-0.61948 0.35031 0.15593 0.059972 0.54363 0.32385 0.66534 0.53834 0.00564 0.010231 0.011289 0.019756 0.00953 0.027164-0.00247 0.010936-0.021519-6e-3 -0.030692-0.013406-0.19086-0.14994-0.57856-0.39088-0.76377-0.43498-0.12771 0.074436-0.25929 0.48048-0.37359 0.76941-0.00353 0.00917-0.00953 0.03175-0.018697 0.029633-0.00741-0.00212-0.00494-0.016933-0.00459-0.026811 0.017992-0.50447 0.23319-0.77223 0.23319-0.77223s-0.62689 0.064911-0.92463 0.30762c-0.00741 0.00564-0.019403 0.016933-0.0254 0.014111-6e-3 -0.00317 0.00282-0.020814 0.00776-0.029281 0.21485-0.36795 0.80892-0.41734 0.89994-0.41734-0.14781-0.18591-0.68051-0.55316-0.90523-0.61454-0.011289-0.00317-0.033514-0.01517-0.033514-0.017992" style="fill:#231f20;opacity:.99"/>
 </g>
</svg>
