<?xml version="1.0" encoding="UTF-8"?>
<svg width="2.2123mm" height="2.1855mm" version="1.1" viewBox="-1.11 -1.09 2.2123 2.1855" xmlns="http://www.w3.org/2000/svg">
	<path d="m-0.91139 0.0064333h1.7533" style="fill:none;stroke-miterlimit:3.864;stroke-width:.20002;stroke:#231f20"/>
	<path d="m-0.0072167-0.88645v1.797" style="fill:none;stroke-miterlimit:3.864;stroke-width:.20002;stroke:#231f20"/>
	<path d="m-1.11-0.55589v1.0915h0.11748c0.00635-0.11994 0.030692-0.19262 0.097367-0.29175 0.088547-0.13194 0.17745-0.19579 0.33091-0.23742-0.16016-0.047272-0.25294-0.11748-0.34149-0.25929-0.065969-0.10442-0.0889-0.17921-0.092428-0.30304" style="fill:#231f20"/>
	<path d="m-0.57272 1.0955h1.0915v-0.11712c-0.1203-0.00635-0.19262-0.030692-0.2921-0.09772-0.13194-0.088194-0.19579-0.17745-0.23707-0.33091-0.047625 0.16051-0.11748 0.25294-0.25929 0.34184-0.10442 0.065617-0.17956 0.0889-0.30304 0.092428" style="fill:#231f20"/>
	<path d="m1.1023 0.567v-1.0915h-0.11712c-0.00635 0.1203-0.030692 0.19262-0.09772 0.2921-0.088194 0.13194-0.17709 0.19579-0.33091 0.23707 0.16051 0.047625 0.25294 0.11783 0.34219 0.25929 0.065617 0.10442 0.088547 0.17956 0.092075 0.30304" style="fill:#231f20"/>
	<path d="m0.5604-1.09h-1.0918v0.11712c0.1203 0.00635 0.19262 0.030692 0.2921 0.09772 0.13194 0.088194 0.19579 0.17745 0.23707 0.33091 0.047272-0.16051 0.11783-0.25294 0.25929-0.34184 0.10442-0.065617 0.17921-0.0889 0.30339-0.092428" style="fill:#231f20"/>
</svg>
