<?xml version="1.0" encoding="UTF-8"?>
<svg width="1.5053mm" height="2.283mm" version="1.1" viewBox="-.75 -1.78 1.5053 2.283" xmlns="http://www.w3.org/2000/svg">
	<path d="m0.0030043-0.44897v-0.64558" style="fill:none;stroke-miterlimit:3.864;stroke-width:.15134;stroke:#231f20"/>
	<path d="m-0.4161-0.0041167c0-0.23883 0.18768-0.43215 0.4191-0.43215s0.4191 0.19332 0.4191 0.43215c0 0.23848-0.18768 0.43145-0.4191 0.43145s-0.4191-0.19297-0.4191-0.43145z" style="fill:none;stroke-miterlimit:3.864;stroke-width:.15134;stroke:#231f20"/>
	<path d="m0.66446-1.78c0 0.37677-0.29633 0.68227-0.66146 0.68227-0.36583 0-0.66216-0.30551-0.66216-0.68227" style="fill:none;stroke-miterlimit:3.864;stroke-width:.18168;stroke:#231f20"/>
	<path d="m-0.11976-0.0041167c0-0.06985 0.054681-0.12629 0.12277-0.12629 0.067381 0 0.12206 0.056444 0.12206 0.12629 0 0.069497-0.054681 0.12594-0.12206 0.12594-0.068086 0-0.12277-0.056444-0.12277-0.12594" style="fill:#231f20"/>
</svg>
