<?xml version="1.0" encoding="UTF-8"?>
<svg width="2.0915mm" height="3.0673mm" version="1.1" viewBox="-.85 -2.77 2.0915 3.0673" xmlns="http://www.w3.org/2000/svg">
	<path d="m-0.85-0.062196v0.11924h0.60501l0.00494-0.11924" style="fill:#231f20"/>
	<path d="m0.25102-0.062196-0.00459 0.11924h0.60325v-0.11924" style="fill:#231f20"/>
	<path d="m-0.44889-4.607e-4 0.25012-1.8852h0.39899l0.24941 1.8743" style="fill:none;stroke-miterlimit:3.864;stroke-width:.14005;stroke:#231f20"/>
	<path d="m-0.19136-2.0452c0.015875-0.39123 0.21555-0.6798 0.65123-0.5588 0.55104-0.36336 0.8569 0.21731 0.68051 0.49283-0.10724 0.16792-0.4318 0.26952-0.73096-0.11889-0.033161 0.060325-0.18168 0.18486-0.25894 0.21802" style="fill:none;stroke-miterlimit:3.864;stroke-width:.099836;stroke:#231f20"/>
	<path d="m-0.23934-0.0025774c0-0.13264 0.10724-0.24024 0.23954-0.24024 0.133 0 0.23954 0.1076 0.23954 0.24024 0 0.13229-0.10654 0.23989-0.23954 0.23989-0.13229 0-0.23954-0.1076-0.23954-0.23989z" style="fill:none;stroke-miterlimit:3.864;stroke-width:.11994;stroke:#231f20"/>
</svg>
