<?xml version="1.0" encoding="UTF-8"?>
<svg width="1.4813mm" height="5.0132mm" version="1.1" viewBox="-.74 -4.71 1.4813 5.0132" xmlns="http://www.w3.org/2000/svg">
	<path d="m0.74131 0.0029853h-0.50694" style="fill:none;stroke-miterlimit:3.864;stroke-width:.11994;stroke:#231f20"/>
	<path d="m-0.23835 0.0029853h-0.50165" style="fill:none;stroke-miterlimit:3.864;stroke-width:.11994;stroke:#231f20"/>
	<path d="m-0.19708-2.6968h0.39511v2.5693s-0.077611-0.093133-0.19509-0.091017c-0.12771 0.00282-0.20002 0.091017-0.20002 0.091017" style="fill:#231f20"/>
	<path d="m-0.23623 0.0029853c0-0.13229 0.10619-0.23989 0.23707-0.23989 0.13088 0 0.23707 0.1076 0.23707 0.23989 0 0.13264-0.10619 0.24024-0.23707 0.24024-0.13088 0-0.23707-0.1076-0.23707-0.24024z" style="fill:none;stroke-miterlimit:3.864;stroke-width:.11994;stroke:#231f20"/>
	<path d="m0.19098-4.6449c0.093839-0.17533-0.96344 1.1963-0.39758 1.6242 0.16122 0.12206 0.58279 0.095955 0.59866-0.22966 0.033161-0.65581-0.66393-0.52917-0.20108-1.3945z" style="fill:none;stroke-miterlimit:3.864;stroke-width:.099836;stroke:#231f20"/>
</svg>
