<?xml version="1.0" encoding="UTF-8"?>
<svg width="1.7mm" height="2.622mm" version="1.1" viewBox="-.85 -2.32 1.7 2.622" xmlns="http://www.w3.org/2000/svg">
	<path d="m0.85004 0.001807h-0.64064" style="fill:none;stroke-miterlimit:3.864;stroke-width:.11994;stroke:#231f20"/>
	<path d="m-0.24252 0.001807h-0.60748" style="fill:none;stroke-miterlimit:3.864;stroke-width:.11994;stroke:#231f20"/>
	<path d="m-0.47535 0.001807 0.21908-1.4873c-0.10266-0.077964-0.16898-0.20073-0.16898-0.33937 0-0.2346 0.19015-0.4251 0.4251-0.4251 0.2346 0 0.42474 0.1905 0.42474 0.4251 0 0.13864-0.066322 0.26141-0.16898 0.33937l0.21908 1.4873" style="fill:none;stroke-miterlimit:3.864;stroke-width:.14005;stroke:#231f20"/>
	<path d="m-0.40162-1.61 0.56162-0.56162" style="fill:none;stroke-miterlimit:3.864;stroke-width:.099836;stroke:#231f20"/>
	<path d="m-0.3226-1.1387 0.77329-0.77364" style="fill:none;stroke-miterlimit:3.864;stroke-width:.099836;stroke:#231f20"/>
	<path d="m-0.39562-0.51572 0.68262-0.68298" style="fill:none;stroke-miterlimit:3.864;stroke-width:.099836;stroke:#231f20"/>
	<path d="m-0.38716 0.025797 0.78281-0.78281" style="fill:none;stroke-miterlimit:3.864;stroke-width:.099836;stroke:#231f20"/>
	<path d="m0.2048-0.016185 0.24165-0.24201" style="fill:none;stroke-miterlimit:3.864;stroke-width:.099836;stroke:#231f20"/>
	<path d="m-0.24005 0.001807c0-0.13264 0.1076-0.24024 0.23989-0.24024 0.13264 0 0.23989 0.1076 0.23989 0.24024s-0.10724 0.24024-0.23989 0.24024c-0.13229 0-0.23989-0.1076-0.23989-0.24024z" style="fill:none;stroke-miterlimit:3.864;stroke-width:.11994;stroke:#231f20"/>
</svg>
