<svg width="1.8397mm" height="4.028mm" version="1.1" viewBox="-.92 -3.72 1.8397 4.028" xmlns="http://www.w3.org/2000/svg">
 <path d="m0.4867-3.6607c0.20179 0.15381 0.36301 0.40816 0.36301 0.69674 0 0.28011-0.13511 0.52846-0.34361 0.68298" style="fill:none;stroke-miterlimit:3.864;stroke-width:.14005;stroke:#231f20"/>
 <path d="m0.22353-0.062044 0.022225 0.11994h0.55351v-0.11994" style="fill:#231f20"/>
 <path d="m0.25316-3.394c0.133 0.087136 0.24659 0.2473 0.24659 0.43004 0 0.16828-0.08255 0.31715-0.21026 0.40781" style="fill:none;stroke-miterlimit:3.864;stroke-width:.099836;stroke:#231f20"/>
 <path d="m-0.28906-2.5562c-0.12735-0.090664-0.21096-0.23954-0.21096-0.40781 0-0.18274 0.098425-0.3429 0.24483-0.43004" style="fill:none;stroke-miterlimit:3.864;stroke-width:.099836;stroke:#231f20"/>
 <path d="m-0.51589-2.2884c-0.2032-0.15558-0.33408-0.40005-0.33408-0.67557 0-0.28963 0.14464-0.54504 0.36548-0.6985" style="fill:none;stroke-miterlimit:3.864;stroke-width:.14005;stroke:#231f20"/>
 <path d="m-0.80094-0.062044v0.11994h0.52282l0.022225-0.11994" style="fill:#231f20"/>
 <path d="m-0.25096-0.002073c0-0.13794 0.11148-0.24977 0.24977-0.24977s0.25012 0.11183 0.25012 0.24977c0 0.13829-0.11183 0.25012-0.25012 0.25012s-0.24977-0.11183-0.24977-0.25012z" style="fill:none;stroke-miterlimit:3.864;stroke-width:.11994;stroke:#231f20"/>
 <path d="m-0.26754-0.01336 0.26458-2.885 0.26846 2.885" style="fill:none;stroke-miterlimit:3.864;stroke-width:.14005;stroke:#231f20"/>
</svg>
