<?xml version="1.0" encoding="UTF-8"?>
<svg width="2.4393mm" height="4.3451mm" version="1.1" viewBox="-1.22 -4.04 2.4393 4.3451" xmlns="http://www.w3.org/2000/svg">
	<path d="m0.22373-0.055471 0.021872 0.11994h0.55351v-0.11994" style="fill:#231f20"/>
	<path d="m-0.80109-0.055471v0.11994h0.52246l0.021872-0.11994" style="fill:#231f20"/>
	<path d="m-0.24158 0.0048544c0-0.13264 0.1076-0.23989 0.24024-0.23989 0.13264 0 0.23989 0.10724 0.23989 0.23989s-0.10724 0.24024-0.23989 0.24024c-0.13264 0-0.24024-0.1076-0.24024-0.24024z" style="fill:none;stroke-miterlimit:3.864;stroke-width:.11994;stroke:#231f20"/>
	<path d="m-0.27651-2.4469h0.54998" style="fill:none;stroke-miterlimit:3.864;stroke-width:.14005;stroke:#231f20"/>
	<path d="m-0.50158-0.0067872 0.22507-3.0402h0.54998l0.22472 3.0402" style="fill:none;stroke-miterlimit:3.864;stroke-width:.14005;stroke:#231f20"/>
	<path d="m-0.66915-2.7211c-0.10019-0.15275-0.14852-0.34008-0.12453-0.53552 0.018697-0.15487 0.081492-0.29457 0.17321-0.40711 0 0 0.01905-0.023636 0.05715-0.057503" style="fill:none;stroke-miterlimit:3.864;stroke-width:.099836;stroke:#231f20"/>
	<path d="m-0.91468-2.4995c-0.15558-0.20391-0.24412-0.46073-0.2346-0.73695 0.00882-0.25329 0.098778-0.48401 0.24377-0.66887 0 0 0.023989-0.028928 0.070203-0.070908" style="fill:none;stroke-miterlimit:3.864;stroke-width:.14005;stroke:#231f20"/>
	<path d="m0.54582-3.7427c0.042686 0.039864 0.064911 0.069497 0.064911 0.069497 0.077964 0.11642 0.16051 0.25647 0.17992 0.41557 0.0254 0.2032-0.028222 0.39758-0.13652 0.55386" style="fill:none;stroke-miterlimit:3.864;stroke-width:.099836;stroke:#231f20"/>
	<path d="m0.76101-3.9886c0.046919 0.043392 0.070203 0.073731 0.070203 0.073731 0.14746 0.17462 0.27764 0.39793 0.30939 0.65334 0.033867 0.27587-0.033161 0.54116-0.17216 0.75847" style="fill:none;stroke-miterlimit:3.864;stroke-width:.14005;stroke:#231f20"/>
</svg>
