<?xml version="1.0" encoding="UTF-8"?>
<svg width="1.788mm" height="3.3187mm" version="1.1" viewBox="-.75 -3.02 1.788 3.3187" xmlns="http://www.w3.org/2000/svg">
	<path d="m-0.22507-0.97223h0.45014l0.074789 0.99977s-0.086078-0.22049-0.30057-0.23954c-0.21484-0.01905-0.29916 0.23954-0.29916 0.23954" style="fill:#231f20"/>
	<path d="m-0.14393-1.2319 0.29774 0.099131v0.19861l-0.29774 0.010936" style="fill:#231f20"/>
	<path d="m-0.21978 0.048356h-0.53022v-0.099836h0.52987" style="fill:#231f20"/>
	<path d="m0.22896-0.05148h0.52105v0.099836h-0.52388" style="fill:#231f20"/>
	<path d="m-0.24976-0.0013862c0-0.13829 0.11183-0.25012 0.25012-0.25012 0.13794 0 0.25012 0.11183 0.25012 0.25012s-0.11218 0.25012-0.25012 0.25012c-0.13829 0-0.25012-0.11183-0.25012-0.25012z" style="fill:none;stroke-miterlimit:3.864;stroke-width:.099836;stroke:#231f20"/>
	<path d="m0.9578-1.1031c-0.12277 0.042686-0.25506 0.065969-0.39264 0.065969-0.66357 0-1.2016-0.53834-1.2016-1.2019 0-0.26106 0.083608-0.50306 0.2473-0.69991z" style="fill:none;stroke-miterlimit:3.864;stroke-width:.099836;stroke:#231f20"/>
	<path d="m0.2854-1.9727 0.3369-0.27693" style="fill:none;stroke-miterlimit:3.864;stroke-width:.099836;stroke:#231f20"/>
</svg>
