<svg width="3.4968mm" height="3.5003mm" version="1.1" viewBox="-1.74 -1.74 3.4968 3.5003" xmlns="http://www.w3.org/2000/svg">
 <path d="m0.15972 0.50867c-0.58138-0.011642-1.4044-0.49954-1.4044-0.49954s0.82304-0.48825 1.4044-0.50024c0.61736-0.013053 1.5028 0.49989 1.5028 0.49989s-0.88548 0.51294-1.5028 0.49989" style="fill:#db4996;stroke-width:.35278"/>
 <path d="m1.7574-0.091831c-0.070909-0.91652-0.80963-1.6492-1.7448-1.6492-0.72955 0-1.3698 0.44662-1.6214 1.0813l0.1517 0.17498c0.20638-0.61384 0.78635-1.0562 1.4697-1.0562 0.78105 0 1.4129 0.57785 1.5526 1.3346" style="fill:#db4996;stroke-width:.35278"/>
 <path d="m1.5486 0.22077c-0.10266 0.75671-0.75107 1.3381-1.536 1.3381-0.68475 0-1.2658-0.4438-1.4711-1.0598l-0.15099 0.17921c0.24836 0.63465 0.89253 1.0809 1.6221 1.0809 0.93169 0 1.6937-0.72955 1.747-1.6489" style="fill:#db4996;stroke-width:.35278"/>
 <path d="m-1.6635-0.48513 0.42157 0.49319-0.42263 0.50201c-0.047273-0.1584-0.072673-0.32632-0.072673-0.50095 0-0.17251 0.00529-0.3369 0.073731-0.49424" style="fill:#db4996;stroke-width:.35278"/>
</svg>
