<svg width="3.5mm" height="3.5mm" version="1.1" viewBox="-1.75 -1.75 3.5 3.5" xmlns="http://www.w3.org/2000/svg">
 <path d="m0 1.6658c0.92001 0 1.6663-0.74565 1.6663-1.666s-0.74632-1.6657-1.6663-1.6657c-0.92001 0-1.6663 0.74531-1.6663 1.6657 0 0.92035 0.74632 1.666 1.6663 1.666z" style="fill:none;stroke-width:.16734;stroke:#db4996"/>
 <path d="m-0.005028-1.0761 0.43541-0.50268s0.00368 0.31626 0.02577 0.48193c0.05656 0.4257 0.22691 0.73461 0.42001 1.0405 0.22055 0.34906 0.65127 0.65094 0.65127 0.65094l-1.492 0.31794" style="fill:#db4996;stroke-width:.33467"/>
 <path d="m0-1.6658v2.8447" style="fill:none;stroke-width:.16734;stroke:#db4996"/>
 <path d="m1.1893 1.1735h-2.3685l-0.00267 6.694e-4c0.30187 0.30355 0.71988 0.49163 1.1817 0.49163 0.46017 0 0.87651-0.18675 1.178-0.48795" style="fill:#db4996;stroke-width:.33467"/>
 <path d="m1.1893 1.1735h-2.3685l-0.00267 6.694e-4c0.30187 0.30355 0.71988 0.49163 1.1817 0.49163 0.46017 0 0.87651-0.18675 1.178-0.48795z" style="fill:none;stroke-width:.16734;stroke:#db4996"/>
 <path d="m-0.051264-1.1793c-0.46543 0.24322-0.83539 0.62095-0.98033 1.3158-0.038594 0.30783-0.015566 0.65674-0.014317 0.99112 0.13959-0.2342 0.29034-0.46241 0.83066-0.48193-0.56732-0.94311 0.053798-1.6345 0.16399-1.825z" style="fill:#db4996"/>
</svg>
