<svg width="2.9435mm" height="3.5mm" version="1.1" viewBox="-1.47 -1.75 2.9435 3.5" xmlns="http://www.w3.org/2000/svg">
 <path d="m-0.096908-1.1457 0.4462-0.51514s0.003771 0.3241 0.026409 0.49387c0.057962 0.43625 0.23253 0.75281 0.43042 1.0663 0.22602 0.35772 0.66742 0.66707 0.66742 0.66707l-1.529 0.32582" style="fill:#db4996;stroke-width:.17145"/>
 <path d="m-0.091755-1.75v2.9152" style="fill:none;stroke-width:.17145;stroke:#db4996"/>
 <path d="m1.1271 1.1598h-2.4272l-0.00274 6.86e-4c0.30936 0.31107 0.73772 0.50382 1.211 0.50382 0.47158 0 0.89823-0.19138 1.2072-0.50005" style="fill:#db4996;stroke-width:.17145"/>
 <path d="m1.1271 1.1598h-2.4272l-0.00274 6.86e-4c0.30936 0.31107 0.73772 0.50382 1.211 0.50382 0.47158 0 0.89823-0.19138 1.2072-0.50005z" style="fill:none;stroke-width:.17145;stroke:#db4996"/>
 <path d="m-0.14429-1.2514c-0.47696 0.24925-0.8561 0.63634-1.0046 1.3484-0.039551 0.31546-0.015952 0.67301-0.014672 1.0157 0.14305-0.24 0.29754-0.47387 0.85125-0.49387-0.58138-0.96649 0.055131-1.675 0.16805-1.8702z" style="fill:#db4996;stroke-width:.17145"/>
</svg>
