<?xml version="1.0" encoding="UTF-8"?>
<svg width="2.9999mm" height="3.0002mm" version="1.1" viewBox="-1.5 -1.5 2.9999 3.0002" xmlns="http://www.w3.org/2000/svg">
	<path d="m0.58042 1.4197-0.58596-0.00529-0.61101-0.00494-0.41063-0.41346-0.42827-0.4318 0.00529-0.57961 0.00529-0.60466 0.85337-0.83044 1.197 0.010583 0.41063 0.41346 0.42827 0.43145-0.00529 0.57961-0.00529 0.60466-0.41769 0.40675" style="fill:#e1ce7b"/>
	<path d="m0.57548 1.425-0.57573-0.00529-0.60043-0.00459-0.40322-0.41099-0.42086-0.42827 0.00494-0.57573 0.00529-0.60043 0.41063-0.40428 0.42792-0.42016 1.1762 0.010231 0.40322 0.40993 0.42122 0.42862-0.00529 0.57609-0.00529 0.60043-0.41063 0.40358z" style="fill:none;stroke-miterlimit:3.864;stroke-width:.14993;stroke:#231f20"/>
</svg>
