<svg width="2mm" height="2mm" version="1.1" viewBox="-1 -1 2 2" xmlns="http://www.w3.org/2000/svg">
 <path d="m-1.017 0.8752c0-0.069198 0.055687-0.1252 0.125-0.1252 0.068908 0 0.125 0.055999 0.125 0.1252 0 0.068799-0.056088 0.1248-0.125 0.1248-0.069309 0-0.125-0.055999-0.125-0.1248" style="fill:#231f20;stroke-width:1.1347"/>
 <path d="m-1.017-0.8748c0-0.069199 0.055687-0.1252 0.125-0.1252 0.068908 0 0.125 0.055999 0.125 0.1252 0 0.068799-0.056088 0.1248-0.125 0.1248-0.069309 0-0.125-0.055999-0.125-0.1248" style="fill:#231f20;stroke-width:1.1347"/>
 <path d="m0.73305-0.8748c0-0.069199 0.056088-0.1252 0.125-0.1252 0.068908 0 0.125 0.055999 0.125 0.1252 0 0.068799-0.056088 0.1248-0.125 0.1248-0.068908 0-0.125-0.055999-0.125-0.1248" style="fill:#231f20;stroke-width:1.1347"/>
 <path d="m0.73305 0.8752c0-0.069198 0.056088-0.1252 0.125-0.1252 0.068908 0 0.125 0.055999 0.125 0.1252 0 0.068799-0.056088 0.1248-0.125 0.1248-0.068908 0-0.125-0.055999-0.125-0.1248" style="fill:#231f20;stroke-width:1.1347"/>
 <path d="m-1.017-4e-7h1.9993" style="fill:none;stroke-miterlimit:3.864;stroke-width:.2;stroke:#231f20"/>
 <path d="m-0.017305-1v1.9992" style="fill:none;stroke-miterlimit:3.864;stroke-width:.2;stroke:#231f20"/>
</svg>
