<svg width="2mm" height="2mm" version="1.1" viewBox="-1 -1 2 2" xmlns="http://www.w3.org/2000/svg">
 <g transform="translate(-.5 -.49)">
  <path d="m-0.5 1.3652c0-0.069198 0.055687-0.1252 0.125-0.1252 0.068908 0 0.125 0.055999 0.125 0.1252 0 0.068799-0.056088 0.1248-0.125 0.1248-0.069309 0-0.125-0.055999-0.125-0.1248" style="fill:#231f20;stroke-width:1.1347"/>
  <path d="m-0.5-0.3848c0-0.069199 0.055687-0.1252 0.125-0.1252 0.068908 0 0.125 0.055999 0.125 0.1252 0 0.068799-0.056088 0.1248-0.125 0.1248-0.069309 0-0.125-0.055999-0.125-0.1248" style="fill:#231f20;stroke-width:1.1347"/>
  <path d="m1.25-0.3848c0-0.069199 0.056088-0.1252 0.125-0.1252 0.068908 0 0.125 0.055999 0.125 0.1252 0 0.068799-0.056088 0.1248-0.125 0.1248-0.068908 0-0.125-0.055999-0.125-0.1248" style="fill:#231f20;stroke-width:1.1347"/>
  <path d="m1.25 1.3652c0-0.069198 0.056088-0.1252 0.125-0.1252 0.068908 0 0.125 0.055999 0.125 0.1252 0 0.068799-0.056088 0.1248-0.125 0.1248-0.068908 0-0.125-0.055999-0.125-0.1248" style="fill:#231f20;stroke-width:1.1347"/>
  <path d="m-0.5 0.49h1.9993" style="fill:none;stroke-miterlimit:3.864;stroke-width:.2;stroke:#231f20"/>
  <path d="m0.49965-0.51v1.9992" style="fill:none;stroke-miterlimit:3.864;stroke-width:.2;stroke:#231f20"/>
 </g>
</svg>
