<svg width="3.75mm" height="3.75mm" version="1.1" viewBox="-2 -2 3.75 3.75" xmlns="http://www.w3.org/2000/svg">
 <path d="m-2.0012-0.12519c0-1.0352 0.83907-1.875 1.8745-1.875 1.036 0 1.8755 0.83986 1.8755 1.875 0 1.0352-0.83957 1.875-1.8755 1.875-1.0355 0-1.8745-0.83986-1.8745-1.875" style="fill:#d1ddef"/>
 <circle cx="-.42162" cy="-2.0002" r=".125" style="fill:#231f20;stroke-width:.1461"/>
 <circle cx="1.7551" cy="-.084663" r=".125" style="fill:#231f20;stroke-width:.1461"/>
 <circle cx=".33183" cy="-1.9639" r=".125" style="fill:#231f20;stroke-width:.1461"/>
 <circle cx=".93424" cy="-1.6882" r=".125" style="fill:#231f20;stroke-width:.1461"/>
 <circle cx="1.3999" cy="-1.2165" r=".125" style="fill:#231f20;stroke-width:.1461"/>
 <circle cx="1.6633" cy="-.66272" r=".125" style="fill:#231f20;stroke-width:.1461"/>
 <circle cx="1.6163" cy=".56204" r=".125" style="fill:#231f20;stroke-width:.1461"/>
 <circle cx="1.2669" cy="1.1165" r=".125" style="fill:#231f20;stroke-width:.1461"/>
 <circle cx=".7852" cy="1.5148" r=".125" style="fill:#231f20;stroke-width:.1461"/>
 <circle cx=".16896" cy="1.7502" r=".125" style="fill:#231f20;stroke-width:.1461"/>
 <circle cx="-.56708" cy="1.7186" r=".125" style="fill:#231f20;stroke-width:.1461"/>
 <circle cx="-1.224" cy="1.3836" r=".125" style="fill:#231f20;stroke-width:.1461"/>
 <circle cx="-1.6862" cy=".92128" r=".125" style="fill:#231f20;stroke-width:.1461"/>
 <circle cx="-2.0051" cy="-.23396" r=".125" style="fill:#231f20;stroke-width:.1461"/>
 <circle cx="-1.8454" cy="-.88417" r=".125" style="fill:#231f20;stroke-width:.1461"/>
 <circle cx="-1.5168" cy="-1.4055" r=".125" style="fill:#231f20;stroke-width:.1461"/>
 <circle cx="-.99706" cy="-1.7895" r=".125" style="fill:#231f20;stroke-width:.1461"/>
 <circle cx="-1.9498" cy=".37847" r=".125" style="fill:#231f20;stroke-width:.1461"/>
</svg>
