<svg width="6.3042mm" height="6.5749mm" version="1.1" viewBox="-3.14 -2.89 6.3042 6.5749" xmlns="http://www.w3.org/2000/svg">
 <path d="m-2.8105-0.00148c0-1.5526 1.2554-2.8122 2.8046-2.8122 1.55 0 2.8061 1.2596 2.8061 2.8122s-1.2562 2.8122-2.8061 2.8122c-1.5493 0-2.8046-1.2596-2.8046-2.8122" style="fill:#d1ddef;paint-order:normal"/>
 <circle cx="-2.8052" cy="-.06965" r=".125" style="fill:#231f20;stroke-width:.1461"/>
 <circle cx="-2.4803" cy="-1.3311" r=".125" style="fill:#231f20;stroke-width:.1461"/>
 <circle cx="-1.6818" cy="-2.2702" r=".125" style="fill:#231f20;stroke-width:.1461"/>
 <circle cx="-.54597" cy="-2.765" r=".125" style="fill:#231f20;stroke-width:.1461"/>
 <circle cx=".69477" cy="-2.7313" r=".125" style="fill:#231f20;stroke-width:.1461"/>
 <circle cx="1.7989" cy="-2.1484" r=".125" style="fill:#231f20;stroke-width:.1461"/>
 <circle cx="2.5525" cy="-1.1736" r=".125" style="fill:#231f20;stroke-width:.1461"/>
 <circle cx="2.7943" cy=".040974" r=".125" style="fill:#231f20;stroke-width:.1461"/>
 <circle cx="2.5075" cy="1.25" r=".125" style="fill:#231f20;stroke-width:.1461"/>
 <circle cx="1.7229" cy="2.2059" r=".125" style="fill:#231f20;stroke-width:.1461"/>
 <circle cx=".60679" cy="2.7514" r=".125" style="fill:#231f20;stroke-width:.1461"/>
 <circle cx="-.63032" cy="2.7345" r=".125" style="fill:#231f20;stroke-width:.1461"/>
 <circle cx="-1.7549" cy="2.2003" r=".125" style="fill:#231f20;stroke-width:.1461"/>
 <circle cx="-2.5197" cy="1.2219" r=".125" style="fill:#231f20;stroke-width:.1461"/>
 <path d="m-3.1372 3.5606h6.3006" style="fill:none;stroke-miterlimit:3.864;stroke-width:.24861;stroke:#231f20"/>
 <path d="m-3.0644 3.6502v-0.60008" style="fill:none;stroke-miterlimit:3.864;stroke-width:.1511;stroke:#231f20"/>
 <path d="m3.0887 3.6502v-0.60008" style="fill:none;stroke-miterlimit:3.864;stroke-width:.1511;stroke:#231f20"/>
</svg>
