<svg width="6mm" height="6mm" version="1.1" viewBox="-3 -3 6 6" xmlns="http://www.w3.org/2000/svg">
 <path d="m-2.8072-2.8463e-4c0-1.5526 1.2554-2.8122 2.8046-2.8122 1.55 0 2.8061 1.2596 2.8061 2.8122s-1.2562 2.8122-2.8061 2.8122c-1.5493 0-2.8046-1.2596-2.8046-2.8122" style="fill:#d1ddef;paint-order:normal"/>
 <circle cx="-2.8019" cy="-.068449" r=".125" style="fill:#231f20;stroke-width:.1461"/>
 <circle cx="-2.477" cy="-1.3299" r=".125" style="fill:#231f20;stroke-width:.1461"/>
 <circle cx="-1.6785" cy="-2.269" r=".125" style="fill:#231f20;stroke-width:.1461"/>
 <circle cx="-.54264" cy="-2.7638" r=".125" style="fill:#231f20;stroke-width:.1461"/>
 <circle cx=".6981" cy="-2.7301" r=".125" style="fill:#231f20;stroke-width:.1461"/>
 <circle cx="1.8022" cy="-2.1472" r=".125" style="fill:#231f20;stroke-width:.1461"/>
 <circle cx="2.5558" cy="-1.1724" r=".125" style="fill:#231f20;stroke-width:.1461"/>
 <circle cx="2.7976" cy=".042174" r=".125" style="fill:#231f20;stroke-width:.1461"/>
 <circle cx="2.5108" cy="1.2512" r=".125" style="fill:#231f20;stroke-width:.1461"/>
 <circle cx="1.7262" cy="2.2071" r=".125" style="fill:#231f20;stroke-width:.1461"/>
 <circle cx=".61012" cy="2.7526" r=".125" style="fill:#231f20;stroke-width:.1461"/>
 <circle cx="-.62699" cy="2.7357" r=".125" style="fill:#231f20;stroke-width:.1461"/>
 <circle cx="-1.7516" cy="2.2015" r=".125" style="fill:#231f20;stroke-width:.1461"/>
 <circle cx="-2.5164" cy="1.2231" r=".125" style="fill:#231f20;stroke-width:.1461"/>
</svg>
