<?xml version="1.0" encoding="UTF-8"?>
<svg width="6.865mm" height="4.1922mm" version="1.1" viewBox="-2 -2.62 6.865 4.1922" xmlns="http://www.w3.org/2000/svg">
 <path d="m-1.8444-0.040699c0-0.80854 0.82639-1.4645 1.8462-1.4645 1.0203 0 1.8472 0.65598 1.8472 1.4645 0 0.80854-0.82688 1.4645-1.8472 1.4645-1.0199 0-1.8462-0.65598-1.8462-1.4645" fill="#d1ddef" stroke-width=".87707"/>
 <g fill="#231f20" stroke-width=".1461">
  <circle cx="-1.7339" cy="-.59746" r=".125"/>
  <circle cx="1.8495" cy="-.033275" r=".125"/>
  <circle cx=".0084856" cy="-1.4993" r=".125"/>
  <circle cx="1.3556" cy="-1.0593" r=".125"/>
  <circle cx="1.7213" cy="-.60435" r=".125"/>
  <circle cx="1.3115" cy="1.0321" r=".125"/>
  <circle cx=".72756" cy="1.3377" r=".125"/>
  <circle cx="-.012755" cy="1.4472" r=".125"/>
  <circle cx="-.75862" cy="1.3353" r=".125"/>
  <circle cx="1.7076" cy=".56747" r=".125"/>
  <circle cx="-1.3212" cy="1.0146" r=".125"/>
  <circle cx="-1.7105" cy=".56643" r=".125"/>
  <circle cx="-1.875" cy="-.026046" r=".125"/>
  <circle cx="-1.411" cy="-1.025" r=".125"/>
  <circle cx=".72548" cy="-1.412" r=".125"/>
  <circle cx="-.80822" cy="-1.3767" r=".125"/>
 </g>
 <path d="m2.1319-1.3054h0.00335l0.49396-0.96667h0.144l0.098791 0.96667h0.00335l0.48726-0.96667h0.12726l-0.57768 1.1238h-0.14065l-0.095442-0.96826h-0.00335l-0.50065 0.96826h-0.14065l-0.12223-1.1238h0.12726z" stroke-width=".088871" aria-label="Wk"/>
 <path d="m3.6298-1.5566h0.00502l0.40019-0.33492h0.15572l-0.43033 0.34445 0.35833 0.39842h-0.14735l-0.33991-0.39048h-0.00502l-0.070326 0.39048h-0.11386l0.2227-1.2h0.11219z" stroke-width=".088871" aria-label="Wk"/>
</svg>
