<svg width="4.33mm" height="4.5084mm" version="1.1" viewBox="-2.16 -2 4.33 4.5084" xmlns="http://www.w3.org/2000/svg">
 <path d="m-1.8855 1.0033e-5c0-1.0352 0.83907-1.875 1.8745-1.875 1.036 0 1.8755 0.83986 1.8755 1.875 0 1.0352-0.83957 1.875-1.8755 1.875-1.0355 0-1.8745-0.83986-1.8745-1.875" style="fill:#d1ddef"/>
 <circle cx="-.30596" cy="-1.875" r=".125" style="fill:#231f20;stroke-width:.1461"/>
 <circle cx="1.8708" cy=".040537" r=".125" style="fill:#231f20;stroke-width:.1461"/>
 <circle cx=".44749" cy="-1.8387" r=".125" style="fill:#231f20;stroke-width:.1461"/>
 <circle cx="1.0499" cy="-1.563" r=".125" style="fill:#231f20;stroke-width:.1461"/>
 <circle cx="1.5156" cy="-1.0913" r=".125" style="fill:#231f20;stroke-width:.1461"/>
 <circle cx="1.779" cy="-.53752" r=".125" style="fill:#231f20;stroke-width:.1461"/>
 <circle cx="1.732" cy=".68724" r=".125" style="fill:#231f20;stroke-width:.1461"/>
 <circle cx="1.3826" cy="1.2417" r=".125" style="fill:#231f20;stroke-width:.1461"/>
 <circle cx=".90086" cy="1.64" r=".125" style="fill:#231f20;stroke-width:.1461"/>
 <circle cx=".28462" cy="1.8754" r=".125" style="fill:#231f20;stroke-width:.1461"/>
 <circle cx="-.45142" cy="1.8438" r=".125" style="fill:#231f20;stroke-width:.1461"/>
 <circle cx="-1.1083" cy="1.5088" r=".125" style="fill:#231f20;stroke-width:.1461"/>
 <circle cx="-1.5705" cy="1.0465" r=".125" style="fill:#231f20;stroke-width:.1461"/>
 <circle cx="-1.8894" cy="-.10876" r=".125" style="fill:#231f20;stroke-width:.1461"/>
 <circle cx="-1.7297" cy="-.75897" r=".125" style="fill:#231f20;stroke-width:.1461"/>
 <circle cx="-1.4011" cy="-1.2803" r=".125" style="fill:#231f20;stroke-width:.1461"/>
 <circle cx="-.8814" cy="-1.6643" r=".125" style="fill:#231f20;stroke-width:.1461"/>
 <circle cx="-1.8341" cy=".50367" r=".125" style="fill:#231f20;stroke-width:.1461"/>
 <path d="m-2.1559 2.4054h4.3232" style="fill:none;stroke-miterlimit:3.864;stroke-width:.20592;stroke:#231f20"/>
 <path d="m-2.0974 2.495v-0.60004" style="fill:none;stroke-miterlimit:3.864;stroke-width:.12516;stroke:#231f20"/>
 <path d="m2.1075 2.495v-0.60004" style="fill:none;stroke-miterlimit:3.864;stroke-width:.12516;stroke:#231f20"/>
</svg>
