<svg width="8.6429mm" height="8.6339mm" version="1.1" viewBox="-4.21 -4.4 8.6429 8.6339" xmlns="http://www.w3.org/2000/svg">
 <path d="m0.43679 1.3366c0.31397-0.30409 0.56233-0.53587 0.84314-0.81598 1.573-1.5727 2.9453-4.7121 2.9453-4.7121s-3.1552 1.4591-4.6796 2.9831c-1.4545 1.4552-3.6851 4.124-3.6851 4.124s0.31468 0.44521 0.56021 0.69003c0.24553 0.24448 0.6925 0.55739 0.6925 0.55739s1.7801-1.4436 3.1235-2.6455" style="fill:#bfce7c"/>
 <path transform="translate(-4.7327 -5.0872)" d="m1.846 9.2502-1.2527-1.2474" style="fill:none;stroke-width:.2;stroke:#000000"/>
 <path transform="translate(-4.7327 -5.0872)" d="m0.82208 7.6839 1.0402-1.1912" style="fill:none;stroke-width:.2;stroke:#000000"/>
 <path transform="translate(-4.7327 -5.0872)" d="m2.1307 6.2075 1.0066-1.0402" style="fill:none;stroke-width:.2;stroke:#000000"/>
 <path transform="translate(-4.7327 -5.0872)" d="m3.4561 4.6808 1.0066-1.0234" style="fill:none;stroke-width:.2;stroke:#000000"/>
 <path transform="translate(-4.7327 -5.0872)" d="m4.8989 3.3219 1.208-0.86402" style="fill:none;stroke-width:.2;stroke:#000000"/>
 <path transform="translate(-4.7327 -5.0872)" d="m6.5431 2.1978 1.3002-0.75497" style="fill:none;stroke-width:.2;stroke:#000000"/>
 <path transform="translate(-4.7327 -5.0872)" d="m8.355 1.1576-0.05872 0.050331 0.66167-0.31222-0.31774 0.68132m-0.24327 0.45298-0.72142 1.3002" style="fill:none;stroke-width:.2;stroke:#000000"/>
 <path d="m2.6996-1.3291-0.86402 1.2331" style="fill:none;stroke-width:.2;stroke:#000000"/>
 <path d="m1.5084 0.28148-1.0716 1.0551" style="fill:none;stroke-width:.2;stroke:#000000"/>
 <path d="m0.065576 1.6656-1.1241 0.99824" style="fill:none;stroke-width:.2;stroke:#000000"/>
 <path d="m-1.4611 2.9742-1.1241 0.98985" style="fill:none;stroke-width:.2;stroke:#000000"/>
</svg>
