<svg width="9.2712mm" height="7.9642mm" version="1.1" viewBox="-4.64 -4 9.2712 7.9642" xmlns="http://www.w3.org/2000/svg">
 <path d="m0.23309 1.3275c0.31785-0.27305 0.58349-0.48084 0.88406-0.73342 1.7039-1.4298 3.4269-4.4767 3.4269-4.4767s-3.3524 1.2178-5.0038 2.6031c-1.5759 1.3229-4.0301 3.7871-4.0301 3.7871s0.27481 0.47131 0.49777 0.73625c0.22331 0.26529 0.64135 0.61595 0.64135 0.61595s1.8986-1.2831 3.3419-2.3633l0.067733-0.051506" style="fill:#d1ddef"/>
 <circle cx="4.5022" cy="-3.871" r=".129" style="fill:#231f20;stroke-width:.15078"/>
 <circle cx="4.3348" cy="-3.4407" r=".129" style="fill:#231f20;stroke-width:.15078"/>
 <circle cx="4.0718" cy="-3.106" r=".129" style="fill:#231f20;stroke-width:.15078"/>
 <circle cx="3.8009" cy="-2.7075" r=".129" style="fill:#231f20;stroke-width:.15078"/>
 <circle cx="3.5459" cy="-2.2931" r=".129" style="fill:#231f20;stroke-width:.15078"/>
 <circle cx="3.2749" cy="-1.8787" r=".129" style="fill:#231f20;stroke-width:.15078"/>
 <circle cx="2.9721" cy="-1.4802" r=".129" style="fill:#231f20;stroke-width:.15078"/>
 <circle cx="2.6533" cy="-1.0818" r=".129" style="fill:#231f20;stroke-width:.15078"/>
 <circle cx="2.3664" cy="-.69926" r=".129" style="fill:#231f20;stroke-width:.15078"/>
 <circle cx="2.0636" cy="-.33268" r=".129" style="fill:#231f20;stroke-width:.15078"/>
 <circle cx="1.7129" cy=".033903" r=".129" style="fill:#231f20;stroke-width:.15078"/>
 <circle cx="1.3782" cy=".38455" r=".129" style="fill:#231f20;stroke-width:.15078"/>
 <circle cx=".99571" cy=".70332" r=".129" style="fill:#231f20;stroke-width:.15078"/>
 <circle cx=".61319" cy="1.0141" r=".129" style="fill:#231f20;stroke-width:.15078"/>
 <circle cx=".23067" cy="1.3169" r=".129" style="fill:#231f20;stroke-width:.15078"/>
 <circle cx="-.20764" cy="1.6516" r=".129" style="fill:#231f20;stroke-width:.15078"/>
 <circle cx="-.65391" cy="1.9624" r=".129" style="fill:#231f20;stroke-width:.15078"/>
 <circle cx="-1.0364" cy="2.2573" r=".129" style="fill:#231f20;stroke-width:.15078"/>
 <circle cx="-1.4508" cy="2.5442" r=".129" style="fill:#231f20;stroke-width:.15078"/>
 <circle cx="-1.8493" cy="2.8311" r=".129" style="fill:#231f20;stroke-width:.15078"/>
 <circle cx="-2.2637" cy="3.11" r=".129" style="fill:#231f20;stroke-width:.15078"/>
 <circle cx="-2.6064" cy="3.3969" r=".129" style="fill:#231f20;stroke-width:.15078"/>
 <circle cx="-3.3873" cy="3.8352" r=".129" style="fill:#231f20;stroke-width:.15078"/>
 <circle cx="-3.7699" cy="3.4607" r=".129" style="fill:#231f20;stroke-width:.15078"/>
 <circle cx="-4.1444" cy="3.0223" r=".129" style="fill:#231f20;stroke-width:.15078"/>
 <circle cx="-4.511" cy="2.584" r=".129" style="fill:#231f20;stroke-width:.15078"/>
 <circle cx="-4.2321" cy="2.2414" r=".129" style="fill:#231f20;stroke-width:.15078"/>
 <circle cx="-3.8814" cy="1.9226" r=".129" style="fill:#231f20;stroke-width:.15078"/>
 <circle cx="-3.5467" cy="1.5799" r=".129" style="fill:#231f20;stroke-width:.15078"/>
 <circle cx="-3.1881" cy="1.2373" r=".129" style="fill:#231f20;stroke-width:.15078"/>
 <circle cx="-2.8454" cy=".91848" r=".129" style="fill:#231f20;stroke-width:.15078"/>
 <circle cx="-2.4789" cy=".56784" r=".129" style="fill:#231f20;stroke-width:.15078"/>
 <circle cx="-2.1362" cy=".2411" r=".129" style="fill:#231f20;stroke-width:.15078"/>
 <circle cx="-1.7855" cy="-.11751" r=".129" style="fill:#231f20;stroke-width:.15078"/>
 <circle cx="-1.395" cy="-.45222" r=".129" style="fill:#231f20;stroke-width:.15078"/>
 <circle cx="-1.0524" cy="-.77895" r=".129" style="fill:#231f20;stroke-width:.15078"/>
 <circle cx="-.68579" cy="-1.0898" r=".129" style="fill:#231f20;stroke-width:.15078"/>
 <circle cx="-.30327" cy="-1.4006" r=".129" style="fill:#231f20;stroke-width:.15078"/>
 <circle cx=".1191" cy="-1.6954" r=".129" style="fill:#231f20;stroke-width:.15078"/>
 <circle cx=".50162" cy="-1.9664" r=".129" style="fill:#231f20;stroke-width:.15078"/>
 <circle cx=".9479" cy="-2.2214" r=".129" style="fill:#231f20;stroke-width:.15078"/>
 <circle cx="1.3703" cy="-2.4445" r=".129" style="fill:#231f20;stroke-width:.15078"/>
 <circle cx="1.8086" cy="-2.6756" r=".129" style="fill:#231f20;stroke-width:.15078"/>
 <circle cx="2.2548" cy="-2.8828" r=".129" style="fill:#231f20;stroke-width:.15078"/>
 <circle cx="2.6931" cy="-3.098" r=".129" style="fill:#231f20;stroke-width:.15078"/>
 <circle cx="3.1394" cy="-3.3052" r=".129" style="fill:#231f20;stroke-width:.15078"/>
 <circle cx="3.5857" cy="-3.4964" r=".129" style="fill:#231f20;stroke-width:.15078"/>
 <circle cx="4.0639" cy="-3.7116" r=".129" style="fill:#231f20;stroke-width:.15078"/>
 <circle cx="-2.9889" cy="3.6599" r=".129" style="fill:#231f20;stroke-width:.15078"/>
</svg>
