<svg width="3.1938mm" height="2.1931mm" version="1.1" viewBox="-1.61 -1.1 3.1938 2.1931" xmlns="http://www.w3.org/2000/svg">
 <path d="m-1.4873 4e-3c0-0.5588 0.70626-0.96238 1.4683-0.96238 0.76235 0 1.4919 0.40358 1.4919 0.96238s-0.71826 0.96202-1.4803 0.96202c-0.76235 0-1.4799-0.40322-1.4799-0.96202" style="fill:#d1ddef"/>
 <path d="m-0.63876 0.3966v-0.8001" style="fill:none;stroke-miterlimit:3.864;stroke-width:.17992;stroke:#231f20"/>
 <path d="m0.6111 0.3966v-0.8001" style="fill:none;stroke-miterlimit:3.864;stroke-width:.17992;stroke:#231f20"/>
 <path d="m-0.014 0.6978v-1.4012" style="fill:none;stroke-miterlimit:3.864;stroke-width:.17992;stroke:#231f20"/>
 <path d="m-1.1132-0.0034h2.1989" style="fill:none;stroke-miterlimit:3.864;stroke-width:.17992;stroke:#231f20"/>
 <circle cx="1.4548" cy="-.0262" r=".129" style="fill:#231f20;stroke-width:.15078"/>
 <circle cx="-.94217" cy=".7381" r=".129" style="fill:#231f20;stroke-width:.15078"/>
 <circle cx="-1.3164" cy=".447" r=".129" style="fill:#231f20;stroke-width:.15078"/>
 <circle cx="-1.481" cy=".0111" r=".129" style="fill:#231f20;stroke-width:.15078"/>
 <circle cx="-1.3354" cy="-.4482" r=".129" style="fill:#231f20;stroke-width:.15078"/>
 <circle cx="-.96634" cy="-.74692" r=".129" style="fill:#231f20;stroke-width:.15078"/>
 <circle cx="-.5188" cy="-.92433" r=".129" style="fill:#231f20;stroke-width:.15078"/>
 <circle cx="-.0339" cy="-.971" r=".129" style="fill:#231f20;stroke-width:.15078"/>
 <circle cx=".4485" cy="-.91474" r=".129" style="fill:#231f20;stroke-width:.15078"/>
 <circle cx=".8947" cy="-.75304" r=".129" style="fill:#231f20;stroke-width:.15078"/>
 <circle cx="1.2751" cy="-.45982" r=".129" style="fill:#231f20;stroke-width:.15078"/>
 <circle cx="-.4993" cy=".9029" r=".129" style="fill:#231f20;stroke-width:.15078"/>
 <circle cx="-.0138" cy=".9641" r=".129" style="fill:#231f20;stroke-width:.15078"/>
 <circle cx=".4609" cy=".8958" r=".129" style="fill:#231f20;stroke-width:.15078"/>
 <circle cx=".9138" cy=".7321" r=".129" style="fill:#231f20;stroke-width:.15078"/>
 <circle cx="1.2855" cy=".4335" r=".129" style="fill:#231f20;stroke-width:.15078"/>
</svg>
