<?xml version="1.0" encoding="UTF-8"?>
<svg width="4.5004mm" height="2.0535mm" version="1.1" viewBox="-2.25 -1.72 4.5004 2.0535" xmlns="http://www.w3.org/2000/svg">
	<path d="m-0.24904 0.058352h-2.001v-0.11007h2.0232" style="fill:#231f20"/>
	<path d="m0.25261-0.051362h1.9978v0.11007h-2.02" style="fill:#231f20"/>
	<path d="m-0.26986 0.003671c0-0.14922 0.121-0.27023 0.26988-0.27023 0.14922 0 0.27023 0.121 0.27023 0.27023 0 0.14887-0.121 0.26988-0.27023 0.26988-0.14887 0-0.26988-0.121-0.26988-0.26988z" style="fill:none;stroke-miterlimit:3.864;stroke-width:.11994;stroke:#231f20"/>
	<path d="m-1.6496 0.0012025 0.34996-0.99977h2.6l0.34996 0.99977" style="fill:none;stroke-miterlimit:3.864;stroke-width:.20002;stroke:#231f20"/>
	<path d="m-0.25045-1.3799c0-0.15452 0.12524-0.28011 0.28011-0.28011 0.15452 0 0.27975 0.12559 0.27975 0.28011s-0.12524 0.27975-0.27975 0.27975c-0.15487 0-0.28011-0.12524-0.28011-0.27975z" style="fill:none;stroke-miterlimit:3.864;stroke-width:.11994;stroke:#231f20"/>
</svg>
