<svg width="1.8874mm" height="2.627mm" version="1.1" viewBox="-.94 -1.31 1.8874 2.627" xmlns="http://www.w3.org/2000/svg">
 <path d="m-0.27854-0.9701c0-0.16016 0.12982-0.28998 0.28998-0.28998s0.28998 0.12982 0.28998 0.28998-0.12982 0.28998-0.28998 0.28998-0.28998-0.12982-0.28998-0.28998z" style="fill:none;stroke-miterlimit:3.864;stroke-width:.099836;stroke:#231f20"/>
 <path d="m-0.092979 1.1011c6e-3 -0.16933 0.022225-0.79657 0.022225-1.8253 0.039158-0.00212 0.11112-0.00212 0.14993 0 0 1.0291 0.021872 1.6648 0.029986 1.8362l0.00106 0.051153-0.097014 0.15381s-0.056797-0.11112-0.09913-0.15134l-0.00706-0.064558" style="fill:#231f20"/>
 <path d="m-0.7502 0.5091c0.13194 0.32597 0.41381 0.49671 0.76553 0.48789 0.32949-0.00882 0.59514-0.15699 0.72954-0.45755l0.056797 0.030339c-0.15064 0.33584-0.42369 0.59161-0.79163 0.60113-0.39335 0.0098778-0.66781-0.26988-0.81527-0.63429" style="fill:#231f20"/>
 <path d="m0.45136 0.55602s0.19262-0.041275 0.29986-0.10266c0.046919-0.027164 0.11007-0.087136 0.13229-0.10513l0.015875 0.00917c-0.00353 0.029633-0.022225 0.11748-0.020814 0.17321 0.00353 0.12947 0.068792 0.32456 0.068792 0.32456s-0.01658 0.024342-0.035278-0.019755c-0.00141-0.00317-0.11395-0.20073-0.13582-0.28258-0.079728 0.021519-0.28892 0.0254-0.2921 0.025753-0.052211 0.00176-0.032808-0.022578-0.032808-0.022578" style="fill:#231f20"/>
 <path d="m-0.94 0.8079s0.060678-0.18768 0.061031-0.31115c0-0.054328-0.020461-0.13864-0.024695-0.16722l0.015875-0.00882c0.023989 0.017992 0.090311 0.077611 0.1397 0.10442 0.11359 0.061736 0.31538 0.10266 0.31538 0.10266s0.0127 0.026458-0.035278 0.020814c-0.00282-3.527e-4 -0.23036-0.00176-0.31221-0.023989-0.021167 0.080081-0.12206 0.26317-0.12382 0.26599-0.024342 0.046214-0.035983 0.017286-0.035983 0.017286" style="fill:#231f20"/>
 <path d="m-0.4888-0.12766h1.0001v-0.14993h-1.0001z" style="fill:#231f20"/>
</svg>
