<?xml version="1.0" encoding="UTF-8" standalone="no"?>
<svg
   width="1.8870083mm"
   height="2.6267447mm"
   version="1.1"
   viewBox="-0.94575 -1.31337 1.8870083 2.6267449"
   id="svg6"
   sodipodi:docname="N20_AnchoringProhibitedPoint.svg"
   inkscape:version="1.1.2 (b8e25be833, 2022-02-05)"
   xmlns:inkscape="http://www.inkscape.org/namespaces/inkscape"
   xmlns:sodipodi="http://sodipodi.sourceforge.net/DTD/sodipodi-0.dtd"
   xmlns="http://www.w3.org/2000/svg"
   xmlns:svg="http://www.w3.org/2000/svg">
  <defs
     id="defs10" />
  <sodipodi:namedview
     id="namedview8"
     pagecolor="#505050"
     bordercolor="#ffffff"
     borderopacity="1"
     inkscape:pageshadow="0"
     inkscape:pageopacity="0"
     inkscape:pagecheckerboard="1"
     inkscape:document-units="mm"
     showgrid="false"
     inkscape:zoom="26.626705"
     inkscape:cx="-0.76990375"
     inkscape:cy="6.290677"
     inkscape:window-width="1920"
     inkscape:window-height="1009"
     inkscape:window-x="-8"
     inkscape:window-y="-8"
     inkscape:window-maximized="1"
     inkscape:current-layer="svg6"
     inkscape:snap-page="true"
     showguides="true"
     inkscape:guide-bbox="true"
     fit-margin-top="0"
     fit-margin-left="0"
     fit-margin-right="0"
     fit-margin-bottom="0">
    <sodipodi:guide
       position="-3.5564959,1.3133754"
       orientation="0,1"
       id="guide5219"
       inkscape:label=""
       inkscape:locked="false"
       inkscape:color="rgb(0,0,255)" />
    <sodipodi:guide
       position="0.94575258,2.9288957"
       orientation="1,0"
       id="guide1084" />
  </sodipodi:namedview>
  <g
     id="g1498"
     transform="matrix(0.35277777,0,0,-0.35277777,-0.28464442,-0.9736836)">
    <path
       style="color:#000000;fill:#db4996;stroke-miterlimit:3.864;-inkscape-stroke:none"
       d="m 0.82226563,-0.96289063 c -0.5304635,0 -0.96289063,0.43325834 -0.96289063,0.96289063 0,0.53046349 0.43242713,0.96289063 0.96289063,0.96289063 C 1.3527291,0.96289063 1.7871094,0.53067127 1.7871094,0 c 0,-0.52984053 -0.4343803,-0.96289062 -0.96484377,-0.96289063 z m 0,0.28320313 c 0.37753557,0 0.68164057,0.30352893 0.68164057,0.6796875 0,0.37732782 -0.304105,0.6796875 -0.68164057,0.6796875 C 0.44473002,0.6796875 0.140625,0.3775356 0.140625,0 c 0,-0.37636681 0.30410502,-0.6796875 0.68164063,-0.6796875 z"
       id="path1500" />
  </g>
  <g
     id="g1502"
     transform="matrix(0.35277777,0,0,-0.35277777,-0.09873052,1.097122)">
    <path
       d="m 0,0 c 0.017,0.48 0.063,2.257 0.063,5.173 0.111,0.006 0.315,0.006 0.425,0 0,-2.916 0.063,-4.719 0.085,-5.204 0.002,-0.033 0.049,-0.091 0.003,-0.146 -0.067,-0.058 -0.275,-0.436 -0.275,-0.436 0,0 -0.161,0.316 -0.281,0.429 C -0.016,-0.098 -0.001,-0.037 0,0"
       style="fill:#db4996;fill-opacity:1;fill-rule:nonzero;stroke:none"
       id="path1504" />
  </g>
  <g
     id="g1506"
     transform="matrix(0.35277777,0,0,-0.35277777,-0.75595552,0.5051609)"
     style="fill:#db4996;fill-opacity:1">
    <path
       d="m 0,0 c 0.375,-0.924 1.172,-1.409 2.169,-1.383 0.936,0.024 1.688,0.444 2.068,1.297 L 4.398,-0.172 C 3.971,-1.124 3.196,-1.849 2.154,-1.876 1.04,-1.905 0.263,-1.112 -0.156,-0.078"
       style="fill:#db4996;fill-opacity:1;fill-rule:nonzero;stroke:none"
       id="path1508" />
  </g>
  <g
     id="g1510"
     transform="matrix(0.35277777,0,0,-0.35277777,0.44525278,0.5524331)"
     style="fill:#db4996;fill-opacity:1">
    <path
       d="M 0,0 C 0,0 0.547,0.117 0.852,0.292 0.984,0.368 1.162,0.538 1.227,0.59 1.242,0.602 1.273,0.583 1.271,0.563 1.26,0.479 1.207,0.231 1.213,0.072 c 0.01,-0.367 0.193,-0.92 0.193,-0.92 0,0 -0.047,-0.069 -0.099,0.057 C 1.303,-0.783 0.984,-0.223 0.922,0.01 0.695,-0.052 0.102,-0.063 0.094,-0.063 -0.055,-0.068 0,0 0,0"
       style="fill:#db4996;fill-opacity:1;fill-rule:nonzero;stroke:none"
       id="path1512" />
  </g>
  <g
     id="g1514"
     transform="matrix(0.35277777,0,0,-0.35277777,-0.94575002,0.8043164)"
     style="fill:#db4996;fill-opacity:1">
    <path
       d="M 0,0 C 0,0 0.171,0.532 0.172,0.883 0.173,1.036 0.115,1.275 0.103,1.356 0.1,1.376 0.132,1.395 0.148,1.382 0.215,1.331 0.404,1.161 0.543,1.086 0.866,0.911 1.438,0.795 1.438,0.795 c 0,0 0.036,-0.075 -0.1,-0.06 C 1.33,0.736 0.685,0.741 0.453,0.804 0.393,0.577 0.106,0.057 0.102,0.049 0.033,-0.081 0,0 0,0"
       style="fill:#db4996;fill-opacity:1;fill-rule:nonzero;stroke:none"
       id="path1516" />
  </g>
  <path
     d="m -0.49454722,-0.1312502 h 0.9997722 v -0.1502834 h -0.9997722 z"
     style="fill:#db4996;fill-opacity:1;fill-rule:nonzero;stroke:none;stroke-width:0.352778"
     id="path1518" />
  <g
     id="g1520"
     transform="matrix(0.35277777,0,0,-0.35277777,-0.67023052,-1.1331391)">
    <path
       style="color:#000000;fill:#db4996;stroke-miterlimit:3.864;-inkscape-stroke:none"
       d="m 3.6660156,-6.6328125 -3.78906247,6.5625 0.24609374,0.140625 3.78906253,-6.5625 z"
       id="path1522" />
  </g>
  <g
     id="g1524"
     transform="matrix(0.35277777,0,0,-0.35277777,0.66644438,-1.1331391)">
    <path
       style="color:#000000;fill:#db4996;stroke-miterlimit:3.864;-inkscape-stroke:none"
       d="m -3.6660156,-6.6328125 -0.2460938,0.140625 3.78906253,6.5625 0.24609374,-0.140625 z"
       id="path1526" />
  </g>
</svg>
