<svg width="1.3331mm" height="2.7855mm" version="1.1" viewBox="-.67 -2.22 1.3331 2.7855" xmlns="http://www.w3.org/2000/svg">
 <path d="m-0.67-0.21975 0.00317-0.00917 0.4886-0.018344 0.17216-0.45685h0.010231l0.16686 0.45685 0.4893 0.020108 0.00282 0.00953-0.38418 0.30233 0.13264 0.47413-0.00811 0.0067-0.40711-0.27552-0.40852 0.27234-0.00811-0.00564 0.13406-0.47202" style="fill:#231f20"/>
 <path d="m-0.30346-0.72644h0.60008v-1.4936h-0.60008z" style="fill:#231f20;stroke-width:.85356"/>
 <path d="m0.2705 7.366e-4c0 0.15134-0.12241 0.2734-0.2734 0.2734-0.15134 0-0.27376-0.12206-0.27376-0.2734 0-0.15099 0.12241-0.27305 0.27376-0.27305 0.15099 0 0.2734 0.12206 0.2734 0.27305" style="fill:#231f20"/>
</svg>
