<svg width="3.4204mm" height="1.8318mm" version="1.1" viewBox="-1.71 -2 3.4204 1.8318" xmlns="http://www.w3.org/2000/svg">
 <path d="m-1.6262-1.0269 0.024342-0.037394c0.35242-0.50553 0.93768-0.83573 1.6002-0.83573 0.67134 0 1.2471 0.33902 1.6076 0.85513l0.018345 0.031045" style="fill:none;stroke-miterlimit:3.864;stroke-width:.20002;stroke:#db4996"/>
 <path d="m-0.052805-0.36542-0.14746-1.3268-0.028222-0.19685c0.04833-0.00706 0.16686-0.012347 0.23142-0.012347 0.064911-3.528e-4 0.16263 0.00212 0.2219 0.013758l-0.025047 0.19544-0.14781 1.3268" style="fill:#db4996;stroke-miterlimit:3.864;stroke-width:.20002"/>
 <path d="m-0.23731-0.29804-0.69427-1.1398-0.10866-0.16651c0.040569-0.026811 0.1457-0.081844 0.20426-0.10971 0.058561-0.027517 0.14852-0.065969 0.20708-0.080786l0.059972 0.18768 0.42651 1.2651" style="fill:#db4996;stroke-miterlimit:3.864;stroke-width:.20002"/>
 <path d="m0.1377-0.3379 0.42686-1.2644 0.057856-0.1905c0.046567 0.014111 0.15628 0.059619 0.21484 0.086431 0.058914 0.027164 0.1464 0.070908 0.19544 0.10619l-0.10548 0.16686-0.69462 1.1398" style="fill:#db4996;stroke-miterlimit:3.864;stroke-width:.20002"/>
 <path d="m-0.34526-0.18374-1.1109-0.74013-0.16898-0.10478c0.0254-0.041275 0.097719-0.13547 0.13899-0.18521 0.041628-0.050094 0.10654-0.12312 0.15346-0.16122l0.1337 0.14499 0.9211 0.96555" style="fill:#db4996;stroke-miterlimit:3.864;stroke-width:.20002"/>
 <path d="m0.28022-0.249 0.92146-0.9652 0.13264-0.14817c0.036336 0.032456 0.11642 0.11994 0.1584 0.16898 0.041981 0.049389 0.10266 0.12629 0.13194 0.17886l-0.16616 0.10654-1.1109 0.73978" style="fill:#db4996;stroke-miterlimit:3.864;stroke-width:.20002"/>
</svg>
