<?xml version="1.0" encoding="UTF-8"?>
<svg width="2.1999mm" height="1.7854mm" version="1.1" viewBox="-1.1 -1.54 2.1999 1.7854" xmlns="http://www.w3.org/2000/svg">
	<path d="m-1.1-0.049689v0.099836h0.92322l0.013406-0.099836" style="fill:#231f20"/>
	<path d="m0.20492-0.049689-0.00811 0.099836h0.90311v-0.099836" style="fill:#231f20"/>
	<path d="m0.0077231-0.48114c0-0.26176-0.41028-0.34219-0.40781-0.6096 0-0.22084 0.17886-0.39934 0.40005-0.39934 0.22084 0 0.40217 0.16192 0.3997 0.39934-0.00564 0.25859-0.38382 0.34784-0.39194 0.6096z" style="fill:none;stroke-miterlimit:3.864;stroke-width:.099836;stroke:#231f20"/>
	<path d="m-0.0967-1.4358c0.26176-0.057856 0.35454 0.09525 0.35454 0.31609 0 0.22049-0.15875 0.33161-0.27446 0.502 0 0 0.40781-0.16157 0.42827-0.50377 0.027869-0.46849-0.50835-0.31432-0.50835-0.31432" style="fill:#231f20"/>
	<path d="m-0.047312-0.21585h0.11606v-0.14111h-0.11606z" style="fill:#231f20"/>
	<path d="m-0.81848-0.41552c0-0.21766 0.17886-0.39441 0.3997-0.39441 0.22119 0 0.40076 0.17674 0.40076 0.39441 0 0.21802-0.17956 0.39441-0.40076 0.39441-0.22084 0-0.3997-0.17639-0.3997-0.39441z" style="fill:none;stroke-miterlimit:3.864;stroke-width:.099836;stroke:#231f20"/>
	<path d="m-0.53979-0.7623c0.29175-0.058914 0.36936 0.1203 0.36936 0.34114 0 0.22119-0.13229 0.39758-0.37747 0.35066 0 0 0.53093 0.11606 0.53128-0.35278 3.528e-4 -0.46849-0.52317-0.33902-0.52317-0.33902" style="fill:#231f20"/>
	<path d="m0.046175-0.41693c0-0.21872 0.17851-0.39582 0.39864-0.39582s0.39864 0.17709 0.39864 0.39582c0 0.21872-0.17851 0.39582-0.39864 0.39582s-0.39864-0.17709-0.39864-0.39582z" style="fill:none;stroke-miterlimit:3.864;stroke-width:.099836;stroke:#231f20"/>
	<path d="m0.32452-0.7623c0.25082-0.044097 0.36936 0.1203 0.36936 0.34114 0 0.22119-0.13229 0.39758-0.37747 0.35066 0 0 0.53093 0.11606 0.53128-0.35278 7.056e-4 -0.46849-0.52317-0.33902-0.52317-0.33902" style="fill:#231f20"/>
	<path d="m-0.20112-0.0041811c0-0.11042 0.089606-0.19967 0.19967-0.19967 0.11042 0 0.20002 0.089253 0.20002 0.19967 0 0.11042-0.089605 0.19967-0.20002 0.19967-0.11007 0-0.19967-0.089253-0.19967-0.19967z" style="fill:none;stroke-miterlimit:3.864;stroke-width:.099836;stroke:#231f20"/>
</svg>
