<?xml version="1.0" encoding="UTF-8"?>
<svg width="1.8002mm" height="2.2026mm" version="1.1" viewBox="-.9 -1.9 1.8002 2.2026" xmlns="http://www.w3.org/2000/svg">
	<path id="solid_color" d="m-0.59979 0.016818 0.22931-1.8168h0.76024l0.21308 1.8168-0.35489-0.010173c-0.026888-0.097793-0.074444-0.19183-0.24877-0.26282-0.17419 0.059327-0.21694 0.1545-0.24406 0.25394z" style="fill:#231f20"/>
	<path d="m-0.59979 0.016818 0.22931-1.8168h0.76024l0.21308 1.8168" style="fill:none;stroke-miterlimit:3.864;stroke-width:.20002;stroke:#231f20"/>
	<path d="m-0.24489-0.002232c0-0.13511 0.10971-0.24483 0.24483-0.24483 0.13547 0 0.24518 0.10971 0.24518 0.24483 0 0.13547-0.10971 0.24483-0.24518 0.24483-0.13511 0-0.24483-0.10936-0.24483-0.24483z" style="fill:none;stroke-miterlimit:3.864;stroke-width:.11994;stroke:#231f20"/>
	<path d="m-0.9-0.057265v0.10971h0.65229l0.021872-0.10971" style="fill:#231f20"/>
	<path d="m0.27016-0.057265-0.022225 0.10971h0.65229v-0.10971" style="fill:#231f20"/>
</svg>
