<?xml version="1.0" encoding="UTF-8"?>
<svg width="1.6002mm" height="2.1516mm" version="1.1" viewBox="-.8 -1.85 1.6002 2.1516" xmlns="http://www.w3.org/2000/svg">
	<path d="m-0.8 0.052002h0.57644v-0.10019h-0.57644z" style="fill:#231f20"/>
	<path d="m0.25304-0.048539-0.033161 0.10019h0.58032v-0.10019" style="fill:#231f20"/>
	<path d="m-0.62502 0.023779 0.27481-1.7988h0.70026l0.27481 1.7988" style="fill:none;stroke-miterlimit:3.864;stroke-width:.14993;stroke:#231f20"/>
	<path d="m-0.25002 0.0015543c0-0.13829 0.11183-0.24977 0.24977-0.24977 0.13829 0 0.25012 0.11148 0.25012 0.24977s-0.11183 0.25012-0.25012 0.25012c-0.13794 0-0.24977-0.11183-0.24977-0.25012z" style="fill:none;stroke-miterlimit:3.864;stroke-width:.099836;stroke:#231f20"/>
	<path d="m-0.54424-0.32688 1.0774-0.48507" style="fill:none;stroke-miterlimit:3.864;stroke-width:.099836;stroke:#231f20"/>
	<path d="m-0.54424-0.8116 1.0774 0.48507" style="fill:none;stroke-miterlimit:3.864;stroke-width:.099836;stroke:#231f20"/>
	<path d="m-0.44122-1.1354 0.81915-0.43109" style="fill:none;stroke-miterlimit:3.864;stroke-width:.099836;stroke:#231f20"/>
	<path d="m-0.41759-1.5739 0.83855 0.42968" style="fill:none;stroke-miterlimit:3.864;stroke-width:.099836;stroke:#231f20"/>
</svg>
