<?xml version="1.0" encoding="UTF-8"?>
<svg width="1.0186mm" height="1.5955mm" version="1.1" viewBox="-.51 -1.6 1.0186 1.5955" xmlns="http://www.w3.org/2000/svg">
	<path d="m-0.13234-1.5829c-0.16964 0.045455-0.30882 0.17747-0.3577 0.36148-0.027499 0.087368-0.024977 0.17715-0.00225 0.26197 0.044546 0.16625 0.17747 0.30882 0.36148 0.3577 0.027386 0.00721 0.053662 0.011645 0.080137 0.01546l-3.6425e-4 0.58177 0.09784-6.463e-4 8.4766e-4 -0.58261c0.028053-0.00388 0.055657-0.0071 0.082802-0.014375 0.16625-0.044547 0.30971-0.17415 0.35858-0.35816 0.02659-0.090764 0.024553-0.18138 0.002735-0.26281-0.045456-0.16964-0.17838-0.31221-0.36148-0.3577-0.090764-0.02659-0.1812-0.02389-0.26263-0.00207zm0.027581 0.11619c0.064462-0.017273 0.13289-0.020833 0.19966-0.00236 0.14032 0.035129 0.24191 0.14209 0.27737 0.27441 0.017273 0.064462 0.020913 0.13287-9.5306e-4 0.20054-0.031736 0.13941-0.14283 0.24211-0.27176 0.27666-0.064462 0.017273-0.13311 0.017343-0.19988-0.00113-0.14032-0.035129-0.24211-0.14283-0.27666-0.27176-0.017273-0.064462-0.013929-0.13394 2.4288e-4 -0.20319 0.036038-0.13693 0.14645-0.23953 0.27198-0.27317z"/>
</svg>
