<?xml version="1.0" encoding="UTF-8"?>
<svg width=".99636mm" height="2.7879mm" version="1.1" viewBox="-.5 -2.79 .99636 2.7879" xmlns="http://www.w3.org/2000/svg">
	<path d="m-0.12873-2.774c-0.21375 0.057273-0.37265 0.25286-0.36966 0.48117-0.00331 0.25908 0.19578 0.47101 0.44582 0.49489v0.21137c-0.024659 0.00297-0.05451 0.00707-0.078259 0.013438-0.21375 0.057273-0.36877 0.25112-0.36918 0.48033 9.929e-4 0.26156 0.19399 0.47119 0.44744 0.49419v0.59657h0.10115l-0.002276-0.59722 0.002276 6.463e-4c0.028051-0.00388 0.054931-0.00461 0.082076-0.011882 0.21036-0.056364 0.36528-0.25089 0.36569-0.48009-8.28e-5 -0.25817-0.1968-0.46867-0.44776-0.49597v-0.21137c0.024659-0.00297 0.052828-0.00859 0.079969-0.015861 0.21036-0.056364 0.36866-0.25188 0.36658-0.47677 0.002159-0.27695-0.22037-0.49672-0.49733-0.49887-0.044351-0.00266-0.085832 0.00453-0.12654 0.015442z"/>
</svg>
