<?xml version="1.0" encoding="UTF-8"?>
<svg width="2.4042mm" height="2.2577mm" version="1.1" viewBox="-1.2 -1.93 2.4042 2.2577" xmlns="http://www.w3.org/2000/svg">
	<path id="solid_color" d="m0.43759-1.7533c-0.44556 0.36152-0.89111 0.60209-1.3367 1.7639l0.63147-0.013052c0.015648-0.15356 0.1374-0.21869 0.26734-0.27701 0.12779 0.038556 0.26283 0.068956 0.23996 0.27701l0.6103 0.014062c0.067572-0.59855-0.092452-1.1857-0.4124-1.7649z" style="fill:#231f20"/>
	<path d="m0.23969-0.002451h0.96449" style="fill:none;stroke-miterlimit:3.864;stroke-width:.11994;stroke:#231f20"/>
	<path d="m-1.2-0.002451h0.95426" style="fill:none;stroke-miterlimit:3.864;stroke-width:.11994;stroke:#231f20"/>
	<path d="m-0.26761-0.002451c0-0.14922 0.12065-0.27023 0.26988-0.27023s0.26988 0.121 0.26988 0.27023c0 0.14887-0.12065 0.27023-0.26988 0.27023s-0.26988-0.12136-0.26988-0.27023z" style="fill:none;stroke-miterlimit:3.864;stroke-width:.11994;stroke:#231f20"/>
	<path d="m-0.89908 0.010601c0.099131-0.39688 0.23001-0.6223 0.4766-0.9592 0.27129-0.37112 0.47202-0.5588 0.86007-0.80469 0.38911 0.70414 0.41381 1.0982 0.4124 1.7649" style="fill:none;stroke-miterlimit:3.864;stroke-width:.25012;stroke:#231f20"/>
</svg>
