<?xml version="1.0" encoding="UTF-8"?>
<svg width="2.4532mm" height="1.8475mm" version="1.1" viewBox="-1.13 -1.52 2.4532 1.8475" xmlns="http://www.w3.org/2000/svg">
	<path id="solid_color" d="m-0.46043-0.025969-0.17921 0.044097-0.091006-0.84104c0.22762-0.29897 0.4983-0.50893 0.84384-0.56421 0.52815 0.085357 0.65162 0.37305 0.83273 0.63193l-0.089076 0.7786-0.58137-0.026115c-0.031904-0.12345-0.067264-0.24486-0.26859-0.2682-0.15742 0.005089-0.25324 0.089902-0.27681 0.2682z" style="fill:#231f20"/>
	<path d="m0.27547-0.0027019h1.0478" style="fill:none;stroke-miterlimit:3.864;stroke-width:.11994;stroke:#231f20"/>
	<path d="m-1.13-0.0027019h0.86007" style="fill:none;stroke-miterlimit:3.864;stroke-width:.11994;stroke:#231f20"/>
	<path d="m-0.26711-0.0027019c0-0.14852 0.121-0.26952 0.26988-0.26952 0.14922 0 0.27023 0.121 0.27023 0.26952 0 0.14958-0.121 0.27023-0.27023 0.27023-0.14887 0-0.26988-0.12065-0.26988-0.27023z" style="fill:none;stroke-miterlimit:3.864;stroke-width:.11994;stroke:#231f20"/>
	<path d="m0.82686-0.0037603c0.20638-0.22613 0.18203-0.63676 0.10089-0.82303-0.1397-0.33584-0.46073-0.56762-0.82867-0.56762-0.36936 0-0.69109 0.23354-0.82973 0.5715-0.13758 0.27905-0.00247 0.6925 0.12982 0.82197" style="fill:none;stroke-miterlimit:3.864;stroke-width:.11994;stroke:#231f20"/>
	<path d="m0.73443-0.088075c0.16087-0.17568 0.14817-0.52811 0.078317-0.69003-0.12206-0.29281-0.40005-0.49212-0.71367-0.49212-0.31468 0-0.59514 0.20391-0.71614 0.49848-0.10971 0.2226 0.00353 0.58349 0.10336 0.68157l0.053269 0.064206-0.17921 0.044097c-0.023636-0.023636-0.096308 0.016933-0.11889-0.017992-0.13159-0.20461-0.22401-0.58491-0.088194-0.87066 0.15663-0.381 0.52176-0.64946 0.9458-0.64946 0.42228 0 0.78599 0.26494 0.94368 0.64417 0.084314 0.19403 0.12277 0.60678-0.068792 0.88688l-0.11712 0.012347s-0.10901-0.056092-0.16792-0.035631c-0.058914 0.020461 0.045508-0.075847 0.045508-0.075847" style="fill:#231f20"/>
</svg>
