<?xml version="1.0" encoding="UTF-8"?>
<svg width="2.4042mm" height="3.4133mm" version="1.1" viewBox="-1.2 -3.08 2.4042 3.4133" xmlns="http://www.w3.org/2000/svg">
	<path id="solid_color" d="m-0.13602-0.96002-0.71649 0.94827 0.58455 0.014817c0.031339-0.1278 0.09799-0.24148 0.3496-0.28117 0.12906 0.093724 0.20335 0.18745 0.19888 0.28117l0.51656-0.0039476-0.11712-0.85937 0.29774-2.0108-0.41346-0.12277z" style="fill:#231f20"/>
	<path d="m-0.85251-0.011746 0.71649-0.94827 0.70026-2.0338 0.41346 0.12277-0.29774 2.0108 0.11712 0.85937" style="fill:none;stroke-miterlimit:3.864;stroke-width:.14005;stroke:#231f20"/>
	<path d="m0.22205 0.003071h0.98213" style="fill:none;stroke-miterlimit:3.864;stroke-width:.11994;stroke:#231f20"/>
	<path d="m-1.2 0.003071h0.94403" style="fill:none;stroke-miterlimit:3.864;stroke-width:.11994;stroke:#231f20"/>
	<path d="m-0.26796 0.003071c0-0.14887 0.121-0.27023 0.26988-0.27023 0.14922 0 0.27023 0.12136 0.27023 0.27023 0 0.14922-0.121 0.27023-0.27023 0.27023-0.14887 0-0.26988-0.121-0.26988-0.27023z" style="fill:none;stroke-miterlimit:3.864;stroke-width:.11994;stroke:#231f20"/>
</svg>
