<?xml version="1.0" encoding="UTF-8"?>
<svg width="2.8mm" height="1.5879mm" version="1.1" viewBox="-1.55 -1.24 2.8 1.5879" xmlns="http://www.w3.org/2000/svg">
	<path d="m0.30773-0.0021036h0.94227" style="fill:none;stroke-miterlimit:3.864;stroke-width:.11994;stroke:#231f20"/>
	<path d="m-1.55-0.0021036h1.2555" style="fill:none;stroke-miterlimit:3.864;stroke-width:.11994;stroke:#231f20"/>
	<path d="m-1.0614 0.020828c0-0.072672-0.021519-0.14323-0.029281-0.21802-0.07373-0.71367 0.28822-0.92287 0.9204-0.92287 0.64135 0 1.0012 0.30868 0.94121 0.92287-0.00776 0.076906-0.016933 0.14111-0.042333 0.22296" style="fill:none;stroke-miterlimit:3.864;stroke-width:.23989;stroke:#231f20"/>
	<path d="m-0.72838-1.0089 0.061031 0.087842c0.16792 0.27129 0.23424 0.52423 0.23671 0.88371" style="fill:none;stroke-miterlimit:3.864;stroke-width:.20002;stroke:#231f20"/>
	<path d="m-0.28952-0.0021036c0-0.16016 0.12982-0.28998 0.28998-0.28998s0.28998 0.12982 0.28998 0.28998-0.12982 0.28998-0.28998 0.28998-0.28998-0.12982-0.28998-0.28998z" style="fill:none;stroke-miterlimit:3.864;stroke-width:.11994;stroke:#231f20"/>
</svg>
