<?xml version="1.0" encoding="UTF-8"?>
<svg width="2.8mm" height="1.5879mm" version="1.1" viewBox="-1.55 -1.24 2.8 1.5879" xmlns="http://www.w3.org/2000/svg">
	<path id="left_color" d="m-0.16509-1.116-0.56329 0.10705c0.26845 0.32385 0.32567 0.6477 0.29774 0.97155 0.13493-0.026198 0.22817-0.26664 0.42264-0.25179 0.2457 0.036548 0.27281 0.16513 0.31573 0.28706l0.43667-0.0017962c0.085035-0.60993-0.05269-1.0826-0.90949-1.1121z" style="fill:#231f20"/>
	<path d="m0.30773-0.0021036h0.94227" style="fill:none;stroke-miterlimit:3.864;stroke-width:.11994;stroke:#231f20"/>
	<path d="m-1.55-0.0021036h1.2555" style="fill:none;stroke-miterlimit:3.864;stroke-width:.11994;stroke:#231f20"/>
	<path d="m-1.0614 0.020828c0-0.072672-0.021519-0.14323-0.029281-0.21802-0.07373-0.71367 0.28822-0.92287 0.9204-0.92287 0.64135 0 1.0012 0.30868 0.94121 0.92287-0.00776 0.076906-0.016933 0.14111-0.042333 0.22296" style="fill:none;stroke-miterlimit:3.864;stroke-width:.23989;stroke:#231f20"/>
	<path d="m-0.72838-1.0089 0.061031 0.087842c0.16792 0.27129 0.23424 0.52423 0.23671 0.88371" style="fill:none;stroke-miterlimit:3.864;stroke-width:.20002;stroke:#231f20"/>
	<path d="m-0.28952-0.0021036c0-0.16016 0.12982-0.28998 0.28998-0.28998s0.28998 0.12982 0.28998 0.28998-0.12982 0.28998-0.28998 0.28998-0.28998-0.12982-0.28998-0.28998z" style="fill:none;stroke-miterlimit:3.864;stroke-width:.11994;stroke:#231f20"/>
</svg>
