<svg width="3.5003mm" height="1.615mm" version="1.1" viewBox="-1.75 -1.3 3.5003 1.615" xmlns="http://www.w3.org/2000/svg">
 <path id="solid_color" d="m-1.2212 0.0038646-0.27799-0.73695c0.9849 0.11453 1.9833 0.12113 2.9976 0.001764l-0.27799 0.74224-0.96616 0.0034945c-0.001887-0.092836-0.11957-0.21876-0.25447-0.26172-0.080402-0.008938-0.281 0.13197-0.24975 0.25223z" style="display:none;fill:#23c320"/>
 <path d="m-1.75-0.055048v0.11959h1.4894l0.021872-0.11959" style="fill:#231f20"/>
 <path d="m0.23543 0.064543h1.5148v-0.11959h-1.5148z" style="fill:#231f20"/>
 <path d="m-0.24999 0.0049248c0-0.13864 0.11183-0.25047 0.25012-0.25047 0.13794 0 0.25012 0.11183 0.25012 0.25047 0 0.13829-0.11218 0.25012-0.25012 0.25012-0.13829 0-0.25012-0.11183-0.25012-0.25012z" style="fill:none;stroke-miterlimit:3.864;stroke-width:.11994;stroke:#231f20"/>
 <path d="m-0.59995-0.74014 0.14993-0.49989h0.89994l0.15028 0.49989" style="fill:none;stroke-miterlimit:3.864;stroke-width:.11994;stroke:#231f20"/>
 <path d="m1.2204 0.01092 0.27799-0.74224c-0.33937 0.028222-1.1381 0.088547-1.5004 0.088547-0.37218 0-1.1603-0.062089-1.4972-0.090311l0.27799 0.73695" style="fill:none;stroke-miterlimit:3.864;stroke-width:.20002;stroke:#231f20"/>
</svg>
