<svg width="4.3325mm" height="3.2115mm" version="1.1" viewBox="-2.22 -2.87 4.3325 3.2115" xmlns="http://www.w3.org/2000/svg">
 <path d="m1.4013-0.011399 0.37536-1.0449s-1.3296 0.11359-1.8507 0.11359c-0.53658 0-1.8478-0.11642-1.8478-0.11642l0.39617 1.0936" style="fill:none;stroke-miterlimit:10;stroke-width:.11994;stroke:#231f20"/>
 <path d="m-0.071935-0.94308v-1.9269" style="fill:none;stroke-miterlimit:3.864;stroke-width:.10392;stroke:#231f20"/>
 <path d="m0.94936-0.97589v-1.2273" style="fill:none;stroke-miterlimit:3.864;stroke-width:.11994;stroke:#231f20"/>
 <path d="m-1.0075-0.97589v-1.2273" style="fill:none;stroke-miterlimit:3.864;stroke-width:.11994;stroke:#231f20"/>
 <path d="m0.28261 0.0014021c0 0.15487-0.12559 0.28011-0.28081 0.28011-0.15487 0-0.28046-0.12524-0.28046-0.28011 0-0.15522 0.12559-0.28081 0.28046-0.28081 0.15522 0 0.28081 0.12559 0.28081 0.28081" style="fill:none;stroke-miterlimit:3.864;stroke-width:.11994;stroke:#231f20"/>
 <path d="m0.30448 0.0016529h1.808" style="fill:none;stroke-miterlimit:10;stroke-width:.11994;stroke:#231f20"/>
 <path d="m-2.22 0.0016529h1.9438" style="fill:none;stroke-miterlimit:10;stroke-width:.11994;stroke:#231f20"/>
 <path d="m-1.8122-0.75717 1.2954 0.27905" style="display:none;fill:none;stroke-miterlimit:3.864;stroke-width:.11994;stroke:#231f20"/>
 <path d="m0.43077-0.4559 1.2386-0.30127" style="display:none;fill:none;stroke-miterlimit:3.864;stroke-width:.11994;stroke:#231f20"/>
</svg>
