<svg width="2.8mm" height="2.2595mm" version="1.1" viewBox="-1.55 -1.91 2.8 2.2595" xmlns="http://www.w3.org/2000/svg">
 <path d="m0.30808-4.1474e-4h0.94192" style="fill:none;stroke-miterlimit:3.864;stroke-width:.11994;stroke:#231f20"/>
 <path d="m-1.55-4.1474e-4h1.2559" style="fill:none;stroke-miterlimit:3.864;stroke-width:.11994;stroke:#231f20"/>
 <path d="m-1.061 0.022517c0-0.072672-0.021872-0.14323-0.029633-0.21802-0.073378-0.71402 0.28857-0.92287 0.92075-0.92287 0.641 0 1.0012 0.30868 0.94121 0.92287-0.00776 0.076906-0.017286 0.14041-0.042333 0.22296" style="fill:none;stroke-miterlimit:3.864;stroke-width:.23989;stroke:#231f20"/>
 <path d="m-0.72768-1.0072 0.060678 0.087842c0.16792 0.27129 0.23424 0.52423 0.23671 0.88371" style="fill:none;stroke-miterlimit:3.864;stroke-width:.20002;stroke:#231f20"/>
 <path d="m-0.28917-4.1474e-4c0-0.16016 0.12982-0.28998 0.28998-0.28998s0.29034 0.12982 0.29034 0.28998c0 0.16016-0.13018 0.28998-0.29034 0.28998s-0.28998-0.12982-0.28998-0.28998z" style="fill:none;stroke-miterlimit:3.864;stroke-width:.11994;stroke:#231f20"/>
 <path d="m-0.42958-1.5703c0-0.15522 0.12524-0.27975 0.27975-0.27975 0.15487 0 0.28011 0.12453 0.28011 0.27975 0 0.15416-0.12524 0.28011-0.28011 0.28011-0.15452 0-0.27975-0.12594-0.27975-0.28011z" style="fill:none;stroke-miterlimit:3.864;stroke-width:.11994;stroke:#231f20"/>
</svg>
