<?xml version="1.0" encoding="UTF-8"?>
<svg width="1.6584mm" height="2.6685mm" version="1.1" viewBox="-.7 -2.6 1.6584 2.6685" xmlns="http://www.w3.org/2000/svg">
	<path d="m-0.46277 0.068518h0.95003v-0.14076h-0.95003z" style="fill:#231f20"/>
	<path d="m-0.69983-1.2798c-0.00282-0.038453 0.030692-0.056797 0.056797-0.00388 0.025753 0.053622 0.22825 0.45755 0.62018 0.45755 0.38135 0 0.69709-0.1524 0.8957-0.32808 0.055033-0.065264 0.10195-0.037747 0.080081-0.00176-0.17639 0.30304-0.48542 0.51999-0.93169 0.52564-0.36936 0-0.62583-0.27834-0.72108-0.64946" style="fill:#231f20"/>
	<path d="m-0.082473-0.012267 0.00988-0.95356s0.047272-1.1624 0.28116-1.5801c0.035631-0.071614 0.085019-0.079728 0.046567 0.022225-0.10936 0.4826-0.15805 1.3116-0.15805 2.4948 0 0.010936-0.17956 0.016581-0.17956 0.016581" style="fill:#231f20"/>
	<path d="m-0.40879-2.1931c0.096308 0.11395 0.27023 0.33937 0.51541 0.33937 0.23213 0 0.46355-0.11395 0.58702-0.22366 0.068792-0.088194 0.1076-0.051858 0.016581 0.044097-0.12594 0.16898-0.41381 0.37712-0.62583 0.35278-0.21837 0-0.40499-0.22542-0.52917-0.48189-0.038453-0.066675-0.010936-0.11077 0.035983-0.030692" style="fill:#231f20"/>
</svg>
