<?xml version="1.0" encoding="UTF-8"?>
<svg width="1.6586mm" height="2.6685mm" version="1.1" viewBox="-.93 -2.6 1.6586 2.6685" xmlns="http://www.w3.org/2000/svg">
	<path d="m-0.47245 0.068518h0.95038v-0.14076h-0.95038z" style="fill:#231f20"/>
	<path d="m0.7284-0.24792c0.00282 0.038453-0.031044 0.056797-0.056797 0.00353-0.025753-0.05327-0.22825-0.45755-0.62018-0.45755-0.38135 0-0.69709 0.15275-0.8957 0.32808-0.055386 0.065264-0.10231 0.037747-0.080081 0.00176 0.17639-0.30304 0.48507-0.51999 0.93169-0.52564 0.36936 0 0.62583 0.27834 0.72108 0.64982" style="fill:#231f20"/>
	<path d="m-0.092158-0.012267 0.00988-0.95356s0.047625-1.1624 0.28116-1.5801c0.035983-0.071614 0.085372-0.079728 0.046919 0.022225-0.10936 0.4826-0.15804 1.3116-0.15804 2.4948 0 0.010936-0.17992 0.016581-0.17992 0.016581" style="fill:#231f20"/>
	<path d="m0.61163-1.4015c-0.096308-0.11359-0.27023-0.33902-0.51541-0.33902-0.23213 0-0.4632 0.11395-0.58702 0.22331-0.068792 0.088194-0.1076 0.052211-0.016581-0.044097 0.12594-0.16828 0.41381-0.37641 0.62583-0.35278 0.21837 0 0.40499 0.22578 0.52917 0.48225 0.038453 0.065969 0.010936 0.11007-0.035983 0.030339" style="fill:#231f20"/>
</svg>
