<svg width="3.2385mm" height="3.3726mm" version="1.1" viewBox="-3.06 -.18 3.2385 3.3726" xmlns="http://www.w3.org/2000/svg">
 <path class="st0" d="m-1.1515 3.193c-0.41628-0.16933-0.80786-0.42686-1.1465-0.76553-0.33514-0.33161-0.60678-0.70556-0.762-1.1324l0.27869-0.10936c0.14111 0.38806 0.39158 0.73025 0.69497 1.0336 0.30692 0.30692 0.66322 0.54328 1.0583 0.68439" style="fill:#db4996;stroke-width:.35278"/>
 <path class="st0" d="m-0.85161 2.4522c-0.32103-0.13053-0.62089-0.32808-0.88194-0.58914-0.25753-0.25753-0.46214-0.52564-0.58561-0.86783l0.28222-0.11642c0.10231 0.29281 0.29281 0.53975 0.51858 0.76906 0.22931 0.22931 0.49036 0.40569 0.79022 0.50447" style="fill:#db4996;stroke-width:.35278"/>
 <path class="st0" d="m-0.55175 1.7114c-0.22578-0.09525-0.43392-0.22931-0.61736-0.41275-0.17992-0.17992-0.33161-0.37042-0.40922-0.60325l0.27869-0.10936c0.0635 0.19756 0.1905 0.34925 0.34219 0.50094s0.32103 0.26106 0.52917 0.33161" style="fill:#db4996;stroke-width:.35278"/>
</svg>
