<svg width="3.1122mm" height="1.294mm" version="1.1" viewBox="-1.55 -1.67 3.1122 1.294" xmlns="http://www.w3.org/2000/svg">
 <path d="m-1.1972-0.48537c0.1076-0.25153 0.29422-0.47166 0.54963-0.61877 0.62618-0.3616 1.4277-0.14711 1.7893 0.47907 0.026458 0.045861 0.04445 0.076553 0.069145 0.13864l-0.18733 0.10619c-0.01905-0.047272-0.046214-0.089253-0.07232-0.13441-0.30092-0.52141-0.96767-0.69991-1.4891-0.39899-0.21943 0.127-0.37465 0.31574-0.46708 0.53763" style="fill:#db4996"/>
 <path d="m-0.10291-1.0703h0.22013v-0.59972h-0.22013z" style="fill:#db4996"/>
 <path d="m-0.98767-1.355 0.1905-0.11042 0.29986 0.51999-0.19015 0.11007" style="fill:#db4996"/>
 <path d="m-1.55-0.68716 0.51929 0.30021 0.11042-0.1905-0.51999-0.30021" style="fill:#db4996"/>
 <path d="m1.4521-0.87872 0.11007 0.1905-0.51964 0.30021-0.11007-0.19085" style="fill:#db4996"/>
 <path d="m0.80303-1.4791 0.19085 0.11042-0.30021 0.51929-0.1905-0.10971" style="fill:#db4996"/>
</svg>
